<?xml version="1.0" encoding="UTF-8" standalone="no"?>
<svg
   version="1.1"
   id="svg5937"
   height="600"
   width="600"
   sodipodi:docname="favicon.svg"
   inkscape:version="1.2 (dc2aedaf03, 2022-05-15)"
   xmlns:inkscape="http://www.inkscape.org/namespaces/inkscape"
   xmlns:sodipodi="http://sodipodi.sourceforge.net/DTD/sodipodi-0.dtd"
   xmlns="http://www.w3.org/2000/svg"
   xmlns:svg="http://www.w3.org/2000/svg"
   xmlns:rdf="http://www.w3.org/1999/02/22-rdf-syntax-ns#"
   xmlns:cc="http://creativecommons.org/ns#"
   xmlns:dc="http://purl.org/dc/elements/1.1/">
  <sodipodi:namedview
     id="namedview144"
     pagecolor="#505050"
     bordercolor="#eeeeee"
     borderopacity="1"
     inkscape:showpageshadow="0"
     inkscape:pageopacity="0"
     inkscape:pagecheckerboard="0"
     inkscape:deskcolor="#505050"
     showgrid="false"
     inkscape:zoom="0.050621173"
     inkscape:cx="4316.3757"
     inkscape:cy="3526.1925"
     inkscape:window-width="1920"
     inkscape:window-height="991"
     inkscape:window-x="-9"
     inkscape:window-y="-9"
     inkscape:window-maximized="1"
     inkscape:current-layer="layer1"
     showguides="true"
     inkscape:lockguides="false">
    <inkscape:grid
       type="xygrid"
       id="grid3182" />
    <sodipodi:guide
       position="-60,300"
       orientation="0,600"
       id="guide4008"
       inkscape:locked="false" />
    <sodipodi:guide
       position="530,610"
       orientation="600,0"
       id="guide4010"
       inkscape:locked="false" />
    <sodipodi:guide
       position="600,0"
       orientation="0,-600"
       id="guide4012"
       inkscape:locked="false" />
    <sodipodi:guide
       position="300,740"
       orientation="-600,0"
       id="guide4014"
       inkscape:locked="false" />
    <sodipodi:guide
       position="201.79848,901.62432"
       orientation="0,-1"
       id="guide4016"
       inkscape:locked="false" />
    <sodipodi:guide
       position="70,60"
       orientation="-1,0"
       id="guide7297"
       inkscape:label=""
       inkscape:locked="false"
       inkscape:color="rgb(0,134,229)" />
  </sodipodi:namedview>
  <defs
     id="defs5939">
    <inkscape:path-effect
       effect="bspline"
       id="path-effect4754"
       is_visible="true"
       lpeversion="1"
       weight="33.333333"
       steps="2"
       helper_size="0"
       apply_no_weight="true"
       apply_with_weight="true"
       only_selected="false" />
    <inkscape:path-effect
       effect="skeletal"
       id="path-effect4748"
       is_visible="true"
       lpeversion="1"
       pattern="M 0,18.867925 C 0,8.4528302 8.4528302,0 18.867925,0 c 10.415094,0 18.867924,8.4528302 18.867924,18.867925 0,10.415094 -8.45283,18.867924 -18.867924,18.867924 C 8.4528302,37.735849 0,29.283019 0,18.867925 Z"
       copytype="single_stretched"
       prop_scale="1.59"
       scale_y_rel="false"
       spacing="0"
       normal_offset="0"
       tang_offset="0"
       prop_units="false"
       vertical_pattern="false"
       hide_knot="false"
       fuse_tolerance="0" />
    <inkscape:path-effect
       effect="bspline"
       id="path-effect4746"
       is_visible="true"
       lpeversion="1"
       weight="33.333333"
       steps="2"
       helper_size="0"
       apply_no_weight="true"
       apply_with_weight="true"
       only_selected="false" />
  </defs>
  <metadata
     id="metadata5942">
    <rdf:RDF>
      <cc:Work
         rdf:about="">
        <dc:format>image/svg+xml</dc:format>
        <dc:type
           rdf:resource="http://purl.org/dc/dcmitype/StillImage" />
        <dc:title />
      </cc:Work>
    </rdf:RDF>
  </metadata>
  <g
     transform="translate(-70.201889,-191.11672)"
     id="layer1">
    <path
       style="fill:#afcfff;stroke:#19232d;stroke-width:16;stroke-linecap:round;stroke-dasharray:none"
       d="m 140.20189,491.11672 c 0,-125.02855 0,-300 230,-300 230,0 230,174.97145 230,300 0,300 70,300 -230,300 -300.792912,0 -230,0 -230,-300 z"
       id="path7662"
       sodipodi:nodetypes="sssss" />
    <path
       id="path6151"
       d="m 473.37784,785.75506 c -1.97972,-2.0625 -4.76059,-6.07689 -6.1797,-8.92087 -1.48315,-2.97231 -4.6865,-6.94692 -7.53409,-9.34804 -5.70541,-4.81088 -6.20492,-5.70104 -7.00361,-12.48109 l -0.58901,-5 h -5.83166 c -5.32268,0 -6.08637,-0.28503 -8.75,-3.26578 -3.63703,-4.07002 -3.64876,-6.18694 -0.0761,-13.73866 1.56234,-3.30245 3.37527,-7.62447 4.02874,-9.60451 0.65347,-1.98003 2.68011,-5.35303 4.50364,-7.49556 7.19364,-8.45202 6.80078,-11.4221 -2.31826,-17.52676 -6.27969,-4.20388 -7.45011,-6.5425 -6.59343,-13.1744 0.45936,-3.55614 0.0634,-6.45571 -1.52278,-11.15162 -1.88214,-5.57203 -1.97871,-6.68234 -0.79183,-9.10439 1.94709,-3.97342 5.87367,-6.51267 10.9383,-7.07361 7.37816,-0.81717 8.49506,-1.21923 11.37436,-4.09445 6.538,-6.52877 5.43166,-11.24047 -5.34747,-22.77394 -10.45299,-11.18451 -13.77504,-17.06552 -15.25447,-27.00492 -1.21111,-8.13671 -2.90576,-11.50879 -5.76399,-11.46944 -0.87725,0.0121 -3.62001,0.96138 -6.09501,2.10954 -2.67721,1.24198 -7.94305,2.39666 -13,2.85061 -4.675,0.41967 -12.55,1.73916 -17.5,2.9322 -4.95,1.19305 -11.77386,2.82539 -15.16413,3.62743 -7.35069,1.73896 -15.80178,1.87335 -21.86098,0.34762 -3.97723,-1.00148 -5.3205,-0.79811 -13.66715,2.06921 -6.51899,2.23945 -10.21752,2.99954 -12.5063,2.57016 -4.84509,-0.90895 -16.0045,-6.29159 -22.80144,-10.99807 -3.3,-2.28506 -8.0293,-5.31982 -10.50956,-6.7439 -2.48026,-1.42409 -5.99572,-4.65869 -7.81214,-7.18801 -3.30172,-4.59756 -4.55982,-5.27796 -6.95203,-3.75975 -1.55838,0.98902 -3.21068,10.54666 -3.22605,18.661 -0.018,9.48234 -1.35444,12.70534 -7.41572,17.88366 -4.46983,3.8187 -5.58432,5.44714 -6.58621,9.62348 -1.46686,6.11455 -0.0961,8.882 5.91961,11.95097 8.58762,4.38108 13.14752,13.54375 11.21553,22.53645 -1.94543,9.05523 -3.41728,22.23837 -2.77053,24.81523 0.34932,1.39177 3.5004,5.65273 7.00241,9.46881 9.51247,10.36556 10.11677,14.87892 5.01167,37.43079 -1.15091,5.08416 -2.71839,8.33442 -6.47101,13.41799 -5.48262,7.42716 -5.61581,7.8149 -6.21412,18.09091 -0.53925,9.26103 -2.35851,12.28171 -7.39692,12.28171 -3.43217,0 -4.94121,-1.29024 -24.35098,-20.82034 -11.38064,-11.45118 -21.86059,-22.67139 -23.28878,-24.93379 -3.83101,-6.06872 -6.27249,-7.95545 -13.3365,-10.3062 -5.71035,-1.90028 -8.15985,-2.08375 -23.75408,-1.77922 -17.14608,0.33484 -17.42236,0.30661 -19.92403,-2.03603 -1.39527,-1.30657 -2.83553,-3.78157 -3.20058,-5.5 -1.3543,-6.37527 -6.6432,-21.1822 -8.17052,-22.87442 -1.04797,-1.16111 -3.05691,-1.75 -5.96994,-1.75 -3.38217,0 -4.98092,-0.59045 -6.96147,-2.571 -3.24719,-3.24719 -2.80441,-6.99712 2.15919,-18.28637 1.91646,-4.35882 4.13682,-11.01157 4.93414,-14.78388 2.36554,-11.19192 9.41055,-36.16 13.08062,-46.35875 0.89064,-2.475 2.44944,-10.12275 3.46401,-16.995 1.7658,-11.96091 2.14979,-13.09909 8.98317,-26.62743 6.5618,-12.99068 7.21162,-14.84095 8.04335,-22.90243 0.69825,-6.76784 1.69788,-10.39149 4.37862,-15.87257 2.4462,-5.00155 3.65812,-9.099 4.09691,-13.85157 0.34272,-3.71196 1.27535,-8.31 2.07251,-10.21789 0.79716,-1.90788 1.44939,-6.07099 1.44939,-9.25136 0,-3.18038 0.68237,-8.93233 1.51638,-12.78212 2.29065,-10.57366 2.87544,-22.07824 1.55033,-30.49963 -0.96349,-6.12322 -0.88898,-10.34535 0.40592,-23 2.24545,-21.94428 3.09295,-25.89832 7.55,-35.22483 2.75422,-5.76331 4.28275,-10.66345 5.03563,-16.14324 0.59456,-4.32743 1.5089,-8.99348 2.03186,-10.36898 0.52297,-1.3755 1.38802,-5.58338 1.92235,-9.35085 0.53432,-3.76747 2.49831,-10.57643 4.36442,-15.13102 1.86611,-4.55459 4.62562,-12.52035 6.13225,-17.70169 1.50663,-5.18133 4.41015,-13.05633 6.45227,-17.5 2.04213,-4.44366 4.69941,-11.04628 5.90509,-14.67248 4.37125,-13.14705 21.64772,-39.90953 34.7646,-53.85287 8.60947,-9.15192 20.14459,-18.20201 30.1057,-23.61998 3.71976,-2.02323 11.01299,-6.2013 16.20718,-9.2846 8.52902,-5.06288 10.10171,-5.64317 16.23299,-5.98962 4.26657,-0.24108 9.37689,0.25058 13.75408,1.32326 6.09671,1.49408 8.12475,1.5546 16.267,0.48544 5.11607,-0.67179 12.79315,-2.03206 17.06016,-3.02283 4.95854,-1.15133 8.74763,-1.51685 10.5,-1.0129 8.56292,2.46254 27.21787,13.80847 48.74179,29.64474 17.01668,12.52006 39.10943,39.48479 42.57998,51.96989 0.92457,3.3261 2.8142,8.28363 4.19918,11.01675 1.38497,2.73312 3.03013,6.87072 3.65591,9.19468 2.42171,8.99355 10.18085,26.50014 16.05588,36.22614 3.38082,5.59689 7.19225,13.17739 8.46986,16.84557 1.27761,3.66818 4.03696,10.94442 6.13188,16.16942 3.68194,9.1832 3.81685,9.95018 4.04567,23 0.13019,7.425 0.91118,16.58943 1.73553,20.36541 1.39376,6.38422 1.3671,7.28861 -0.3805,12.90365 -1.57793,5.06989 -1.78614,7.97817 -1.29834,18.1346 0.31954,6.65299 1.15182,13.22134 1.84951,14.59634 0.6977,1.375 6.09214,7.45 11.98764,13.5 12.14451,12.46275 14.71886,16.9663 16.46898,28.81071 1.27746,8.64558 0.86421,12.4347 -2.63007,24.11552 -1.79967,6.01599 -2.37111,10.30623 -2.37111,17.80171 0,9.33137 0.19284,10.24814 3.5,16.63877 2.51898,4.86758 3.5,8.0582 3.5,11.38318 0,7.31847 1.17013,9.181 7.34153,11.68579 5.95042,2.4151 16.76391,12.58125 18.64497,17.5288 1.61323,4.24313 1.18159,13.46915 -0.99816,21.33505 -1.11654,4.02915 -1.73383,8.36633 -1.38727,9.74714 0.34342,1.36829 2.6135,4.70016 5.04464,7.40417 5.61944,6.25017 11.35429,15.7357 11.35429,18.78017 0,2.87102 -3.01104,8.94023 -6.48172,13.0649 -1.5191,1.80534 -4.62579,3.74336 -7.56639,4.72007 -2.744,0.91141 -5.66651,2.63066 -6.49448,3.82056 -9.93233,14.27406 -10.47241,15.97137 -7.5384,23.6909 3.72281,9.79494 2.21052,16.39292 -7.01285,30.59637 -2.89362,4.45602 -4.24883,7.86034 -4.97604,12.5 -0.54967,3.50691 -1.4802,7.87352 -2.06785,9.70358 -1.12636,3.5077 -5.89137,7.16236 -9.3469,7.16887 -1.16749,0.002 -4.7013,2.91562 -8.58282,7.07603 -6.24714,6.69602 -7.10264,7.24569 -16.07926,10.33116 -5.21458,1.79237 -12.71431,5.35044 -16.66606,7.90681 -12.13154,7.84785 -14.30602,8.68974 -22.44444,8.68974 -7.17161,0 -7.41798,-0.0845 -10.93638,-3.75 z M 372.08298,561.61107 c 3.85635,-0.45214 8.95287,-1.81245 11.32559,-3.02293 2.7375,-1.39656 6.55162,-2.29926 10.43689,-2.47013 6.0454,-0.26587 6.18719,-0.34008 11.21039,-5.8675 2.79815,-3.07902 6.08348,-7.5924 7.30074,-10.02973 1.98616,-3.9769 2.14886,-5.39499 1.58593,-13.82361 -0.43319,-6.48605 -1.23225,-10.49689 -2.58247,-12.96266 -2.3839,-4.35346 -10.31973,-9.71915 -17.19578,-11.62667 -2.80106,-0.77706 -9.36784,-2.71384 -14.59284,-4.30396 -11.86405,-3.61058 -30.37145,-5.76218 -35.17142,-4.08891 -5.92398,2.06511 -10.96337,6.38085 -15.82888,13.55589 -2.62351,3.86881 -6.00769,8.1592 -7.52039,9.5342 -11.10169,10.09107 -11.20282,17.21926 -0.4456,31.40676 4.77034,6.29152 6.59955,7.43618 15.44497,9.665 3.86172,0.97305 9.04632,2.72448 11.52132,3.89206 4.73272,2.23265 6.58975,2.24342 24.51155,0.14219 z m -78.51155,-21.10601 c 1.1,-1.1 2,-2.3546 2,-2.78801 0,-5.33658 3.35427,-25.22445 4.80899,-28.51309 2.05691,-4.64998 6.72069,-8.78191 14.82294,-13.13256 2.82257,-1.51562 6.06738,-4.02093 7.2107,-5.56735 3.27702,-4.43242 19.99752,-16.87886 24.19244,-18.00843 3.02826,-0.81543 4.78013,-0.6646 8.63213,0.74319 3.6566,1.33638 7.87503,1.76625 17.3328,1.76625 h 12.5 l 18,9 c 17.82258,8.91129 18.03231,9.05421 21.27774,14.5 4.31144,7.23453 5.36796,11.37291 6.15589,24.11266 0.69654,11.26216 1.87331,14.40428 6.53966,17.46179 5.2948,3.46929 12.47077,-1.59923 17.03029,-12.02882 5.7918,-13.24834 7.41672,-17.38251 8.46844,-21.54563 0.62525,-2.475 2.23036,-7.875 3.56692,-12 1.33655,-4.125 3.32223,-13.575 4.41262,-21 1.09039,-7.425 2.62809,-15.75 3.41711,-18.5 1.75769,-6.12615 2.90779,-34.5 1.39842,-34.5 -0.56358,0 -2.7151,1.52719 -4.78117,3.39375 -2.77505,2.50709 -5.54998,3.79995 -10.6212,4.94849 -11.523,2.60975 -28.81071,3.96093 -43.25545,3.38078 -18.63473,-0.74844 -21.14531,-1.74415 -30.4149,-12.06276 -9.60823,-10.69557 -11.01333,-12.82876 -15.00304,-22.77726 -5.89046,-14.68811 -10.66523,-14.47178 -17.00749,0.77053 -4.76121,11.44258 -18.36403,29.95259 -24.05708,32.73562 -9.52513,4.65632 -41.71277,3.63338 -62.6419,-1.99081 -10.12096,-2.71976 -14.28073,-2.67566 -15.37001,0.16296 -0.33316,0.86821 0.2922,5.00684 1.3897,9.19697 1.0975,4.19012 1.99545,9.07929 1.99545,10.86483 0,1.78553 0.63855,7.43828 1.419,12.56166 0.78045,5.12338 1.90941,13.7428 2.50879,19.15427 2.25686,20.37577 13.80676,48.19429 24.0439,57.91097 4.44172,4.2159 7.09874,4.67957 10.02831,1.75 z m 17.5,-119.92135 c 16.17353,-0.91656 21.68129,-2.59476 24.1437,-7.35653 2.29389,-4.4359 3.94297,-23.82064 2.45027,-28.80281 -1.50945,-5.0381 -4.11729,-6.67329 -15.25716,-9.56667 -6.97813,-1.81245 -13.02829,-2.50482 -26.24495,-3.00343 -20.37161,-0.76854 -24.67295,0.17903 -32.32926,7.12205 l -4.7626,4.3189 0.13122,9.35492 c 0.23748,16.93022 5.59574,25.54313 17.36878,27.91869 4.76409,0.9613 17.70108,0.96688 34.5,0.0149 z m 127.44605,-3.06481 c 9.77062,-1.12326 17.52205,-4.45056 20.84785,-8.94894 2.68627,-3.63337 5.09462,-12.28189 5.88026,-21.11629 1.06073,-11.92771 -2.73451,-15.43777 -17.86769,-16.52507 -13.13228,-0.94355 -40.12303,1.02541 -47.96274,3.49885 -8.03188,2.53408 -12.84373,7.20061 -12.84373,12.45586 0,7.14492 6.99691,21.69635 13.14729,27.34232 1.33042,1.22131 4.20405,2.6386 6.38583,3.14954 5.36858,1.25724 22.0824,1.33136 32.41293,0.14373 z m -53.2698,-55.85048 c 14.93122,-6.85392 33.30609,-9.70211 55.39426,-8.58636 15.46413,0.78114 17.92949,0.1559 17.92949,-4.54708 0,-1.59485 -0.45654,-4.10051 -1.01453,-5.56813 -0.55799,-1.46763 -1.66897,-7.02561 -2.46884,-12.35106 -1.73703,-11.56493 -3.00537,-15.36696 -8.9953,-26.96457 -6.55876,-12.69896 -19.88998,-31.80709 -24.77693,-35.5137 -8.88256,-6.73714 -31.09955,-15.81826 -46.84019,-19.14576 -3.62769,-0.76688 -8.93185,-2.3151 -11.78702,-3.44051 -6.74324,-2.65794 -9.53064,-2.57998 -14.63131,0.40922 -2.30441,1.35047 -7.74394,3.40502 -12.08786,4.56567 -9.15557,2.44627 -18.4218,5.50802 -30.39802,10.04413 -10.99712,4.16527 -15.76085,8.90589 -22.25527,22.14732 -2.6154,5.33252 -6.8904,12.53153 -9.5,15.99781 -5.81581,7.72501 -12.8621,22.42024 -14.22958,29.67615 -0.55833,2.96257 -1.01515,10.27507 -1.01515,16.25 0,9.73131 0.2207,11.08421 2.11762,12.98113 1.91399,1.91399 2.80348,2.05103 9.25,1.42514 3.92281,-0.38087 9.38238,-1.17086 12.13238,-1.75554 11.7391,-2.49587 43.48174,1.10994 59.0448,6.70719 6.45104,2.32012 7.9828,2.47309 21.13145,2.11039 14.09621,-0.38884 14.22606,-0.41392 23,-4.44144 z"
       style="fill:#19232d;fill-opacity:1;stroke:#afcfff;stroke-width:0.66666667;stroke-dasharray:none" />
  </g>
</svg>
