<?xml version="1.0" encoding="UTF-8" standalone="no"?>
<svg
   version="1.1"
   id="svg5937"
   height="300"
   width="300"
   sodipodi:docname="safari-pinned-tab.svg"
   inkscape:version="1.2 (dc2aedaf03, 2022-05-15)"
   inkscape:export-filename="mstile-150x150.png"
   inkscape:export-xdpi="48"
   inkscape:export-ydpi="48"
   xmlns:inkscape="http://www.inkscape.org/namespaces/inkscape"
   xmlns:sodipodi="http://sodipodi.sourceforge.net/DTD/sodipodi-0.dtd"
   xmlns="http://www.w3.org/2000/svg"
   xmlns:svg="http://www.w3.org/2000/svg"
   xmlns:rdf="http://www.w3.org/1999/02/22-rdf-syntax-ns#"
   xmlns:cc="http://creativecommons.org/ns#"
   xmlns:dc="http://purl.org/dc/elements/1.1/">
  <sodipodi:namedview
     id="namedview144"
     pagecolor="#505050"
     bordercolor="#eeeeee"
     borderopacity="1"
     inkscape:showpageshadow="0"
     inkscape:pageopacity="0"
     inkscape:pagecheckerboard="0"
     inkscape:deskcolor="#505050"
     showgrid="false"
     inkscape:zoom="0.5658182"
     inkscape:cx="-129.0167"
     inkscape:cy="676.01218"
     inkscape:window-width="958"
     inkscape:window-height="973"
     inkscape:window-x="952"
     inkscape:window-y="0"
     inkscape:window-maximized="0"
     inkscape:current-layer="layer1"
     showguides="true"
     inkscape:lockguides="false">
    <inkscape:grid
       type="xygrid"
       id="grid3182"
       originx="0"
       originy="0" />
    <sodipodi:guide
       position="-60,0"
       orientation="0,600"
       id="guide4008"
       inkscape:locked="false" />
    <sodipodi:guide
       position="530,310"
       orientation="600,0"
       id="guide4010"
       inkscape:locked="false" />
    <sodipodi:guide
       position="600,-300"
       orientation="0,-600"
       id="guide4012"
       inkscape:locked="false" />
    <sodipodi:guide
       position="300,440"
       orientation="-600,0"
       id="guide4014"
       inkscape:locked="false" />
    <sodipodi:guide
       position="201.79848,601.62432"
       orientation="0,-1"
       id="guide4016"
       inkscape:locked="false" />
    <sodipodi:guide
       position="70,-240"
       orientation="-1,0"
       id="guide7297"
       inkscape:label=""
       inkscape:locked="false"
       inkscape:color="rgb(0,134,229)" />
  </sodipodi:namedview>
  <defs
     id="defs5939">
    <inkscape:path-effect
       effect="bspline"
       id="path-effect4754"
       is_visible="true"
       lpeversion="1"
       weight="33.333333"
       steps="2"
       helper_size="0"
       apply_no_weight="true"
       apply_with_weight="true"
       only_selected="false" />
    <inkscape:path-effect
       effect="skeletal"
       id="path-effect4748"
       is_visible="true"
       lpeversion="1"
       pattern="M 0,18.867925 C 0,8.4528302 8.4528302,0 18.867925,0 c 10.415094,0 18.867924,8.4528302 18.867924,18.867925 0,10.415094 -8.45283,18.867924 -18.867924,18.867924 C 8.4528302,37.735849 0,29.283019 0,18.867925 Z"
       copytype="single_stretched"
       prop_scale="1.59"
       scale_y_rel="false"
       spacing="0"
       normal_offset="0"
       tang_offset="0"
       prop_units="false"
       vertical_pattern="false"
       hide_knot="false"
       fuse_tolerance="0" />
    <inkscape:path-effect
       effect="bspline"
       id="path-effect4746"
       is_visible="true"
       lpeversion="1"
       weight="33.333333"
       steps="2"
       helper_size="0"
       apply_no_weight="true"
       apply_with_weight="true"
       only_selected="false" />
  </defs>
  <metadata
     id="metadata5942">
    <rdf:RDF>
      <cc:Work
         rdf:about="">
        <dc:format>image/svg+xml</dc:format>
        <dc:type
           rdf:resource="http://purl.org/dc/dcmitype/StillImage" />
      </cc:Work>
    </rdf:RDF>
  </metadata>
  <g
     transform="translate(-70.201889,-191.11672)"
     id="layer1">
    <path
       id="path6151"
       d="m 269.21051,481.42895 c -0.94036,-0.97969 -2.26128,-2.88652 -2.93535,-4.23741 -0.7045,-1.41185 -2.22609,-3.29979 -3.5787,-4.44032 -2.71007,-2.28517 -2.94733,-2.708 -3.32671,-5.92852 l -0.27978,-2.375 h -2.77004 c -2.52827,0 -2.89103,-0.13539 -4.15625,-1.55125 -1.72759,-1.93326 -1.73316,-2.93879 -0.0362,-6.52586 0.74211,-1.56866 1.60326,-3.62162 1.91365,-4.56214 0.3104,-0.94052 1.27306,-2.54269 2.13923,-3.56039 3.41698,-4.01471 3.23037,-5.4255 -1.10117,-8.32521 -2.98285,-1.99685 -3.5388,-3.10769 -3.13188,-6.25784 0.2182,-1.68917 0.0301,-3.06647 -0.72332,-5.29702 -0.89402,-2.64672 -0.93989,-3.17412 -0.37612,-4.32459 0.92487,-1.88737 2.78999,-3.09352 5.19569,-3.35996 3.50463,-0.38816 4.03516,-0.57914 5.40282,-1.94487 3.10555,-3.10116 2.58004,-5.33922 -2.54004,-10.81762 -4.96517,-5.31264 -6.54315,-8.10612 -7.24588,-12.82734 -0.57527,-3.86493 -1.38023,-5.46667 -2.73789,-5.44798 -0.4167,0.006 -1.71951,0.45665 -2.89513,1.00203 -1.27168,0.58994 -3.77295,1.13841 -6.175,1.35404 -2.22063,0.19934 -5.96125,0.8261 -8.3125,1.3928 -2.35125,0.56669 -5.59259,1.34206 -7.20296,1.72302 -3.49158,0.82601 -7.50585,0.88985 -10.38397,0.16512 -1.88918,-0.4757 -2.52724,-0.3791 -6.4919,0.98288 -3.09652,1.06374 -4.85332,1.42478 -5.94049,1.22083 -2.30142,-0.43176 -7.60214,-2.98851 -10.83068,-5.22409 -1.5675,-1.0854 -3.81392,-2.52691 -4.99204,-3.20335 -1.17813,-0.67644 -2.84797,-2.21288 -3.71077,-3.41431 -1.56832,-2.18384 -2.16591,-2.50703 -3.30221,-1.78588 -0.74023,0.46979 -1.52508,5.00967 -1.53238,8.86398 -0.009,4.50411 -0.64336,6.03503 -3.52246,8.49474 -2.12317,1.81388 -2.65256,2.58739 -3.12845,4.57115 -0.69676,2.90441 -0.0456,4.21895 2.81181,5.67671 4.07912,2.08101 6.24507,6.43328 5.32738,10.70481 -0.92408,4.30124 -1.62321,10.56323 -1.316,11.78724 0.16592,0.66109 1.66269,2.68505 3.32614,4.49768 4.51842,4.92364 4.80547,7.06749 2.38054,17.77963 -0.54668,2.41497 -1.29123,3.95885 -3.07373,6.37354 -2.60424,3.5279 -2.66751,3.71208 -2.9517,8.59319 -0.25615,4.39899 -1.1203,5.83381 -3.51354,5.83381 -1.63028,0 -2.34708,-0.61287 -11.56672,-9.88966 -5.4058,-5.43931 -10.38378,-10.76891 -11.06217,-11.84355 -1.81973,-2.88265 -2.97943,-3.77884 -6.33483,-4.89545 -2.71242,-0.90263 -3.87593,-0.98978 -11.28319,-0.84513 -8.14439,0.15905 -8.27562,0.14564 -9.46392,-0.96711 -0.66275,-0.62062 -1.34687,-1.79625 -1.52027,-2.6125 -0.64329,-3.02826 -3.15552,-10.06155 -3.881,-10.86535 -0.49778,-0.55153 -1.45203,-0.83125 -2.83572,-0.83125 -1.60653,0 -2.36594,-0.28047 -3.3067,-1.22123 -1.54241,-1.54241 -1.33209,-3.32363 1.02562,-8.68602 0.91032,-2.07044 1.96499,-5.2305 2.34371,-7.02235 1.12363,-5.31616 4.47001,-17.176 6.2133,-22.0204 0.42305,-1.17563 1.16348,-4.80831 1.6454,-8.07263 0.83876,-5.68143 1.02115,-6.22206 4.26701,-12.64803 3.11685,-6.17057 3.42552,-7.04945 3.82059,-10.87865 0.33167,-3.21472 0.80649,-4.93596 2.07984,-7.53947 1.16195,-2.37574 1.73761,-4.32203 1.94604,-6.5795 0.16279,-1.76318 0.60579,-3.94725 0.98444,-4.85349 0.37865,-0.90625 0.68846,-2.88372 0.68846,-4.3944 0,-1.51068 0.32412,-4.24286 0.72028,-6.07151 1.08806,-5.02249 1.36583,-10.48716 0.73641,-14.48732 -0.45766,-2.90853 -0.42227,-4.91404 0.19281,-10.925 1.06659,-10.42353 1.46915,-12.3017 3.58625,-16.7318 1.30825,-2.73757 2.0343,-5.06513 2.39192,-7.66803 0.28242,-2.05553 0.71673,-4.27191 0.96514,-4.92527 0.24841,-0.65336 0.65931,-2.65211 0.91311,-4.44165 0.2538,-1.78955 1.1867,-5.02381 2.0731,-7.18724 0.8864,-2.16343 2.19717,-5.94716 2.91282,-8.4083 0.71565,-2.46113 2.09482,-6.20176 3.06483,-8.3125 0.97001,-2.11074 2.23222,-5.24698 2.80492,-6.96943 2.07634,-6.24485 10.28266,-18.95703 16.51318,-25.58011 4.0895,-4.34716 9.56868,-8.64596 14.30021,-11.21949 1.76688,-0.96104 5.23117,-2.94562 7.69841,-4.41019 4.05128,-2.40487 4.79831,-2.6805 7.71067,-2.84507 2.02662,-0.11451 4.45402,0.11903 6.53319,0.62855 2.89593,0.70969 3.85925,0.73844 7.72682,0.23058 2.43014,-0.3191 6.07675,-0.96522 8.10358,-1.43584 2.35531,-0.54688 4.15512,-0.7205 4.9875,-0.48113 4.06739,1.16971 12.92849,6.55903 23.15235,14.08125 8.08292,5.94703 18.57698,18.75528 20.22549,24.6857 0.43917,1.5799 1.33674,3.93473 1.99461,5.23296 0.65786,1.29823 1.43931,3.26359 1.73656,4.36747 1.15031,4.27194 4.8359,12.58757 7.62654,17.20742 1.60589,2.65852 3.41632,6.25926 4.02318,8.00164 0.60687,1.74239 1.91756,5.1986 2.91265,7.68048 1.74892,4.36202 1.813,4.72633 1.92169,10.925 0.0618,3.52687 0.43281,7.87998 0.82438,9.67357 0.66203,3.0325 0.64937,3.46209 -0.18074,6.12923 -0.74952,2.4082 -0.84842,3.78963 -0.61671,8.61394 0.15178,3.16017 0.54711,6.28013 0.87851,6.93326 0.33141,0.65312 2.89377,3.53875 5.69413,6.4125 5.76865,5.9198 6.99146,8.05899 7.82277,13.68509 0.60679,4.10665 0.4105,5.90648 -1.24928,11.45487 -0.85485,2.85759 -1.12628,4.89546 -1.12628,8.45581 0,4.4324 0.0916,4.86787 1.6625,7.90342 1.19651,2.3121 1.6625,3.82764 1.6625,5.40701 0,3.47627 0.55581,4.36097 3.48723,5.55075 2.82645,1.14717 7.96285,5.97609 8.85636,8.32618 0.76628,2.01548 0.56125,6.39784 -0.47413,10.13415 -0.53036,1.91384 -0.82357,3.974 -0.65895,4.62989 0.16312,0.64993 1.24141,2.23257 2.3962,3.51698 2.66924,2.96883 5.39329,7.47445 5.39329,8.92058 0,1.36373 -1.43025,4.24661 -3.07882,6.20583 -0.72157,0.85753 -2.19725,1.77809 -3.59403,2.24203 -1.3034,0.43292 -2.6916,1.24956 -3.08488,1.81476 -4.71786,6.78018 -4.9744,7.58641 -3.58074,11.25318 1.76833,4.6526 1.05,7.78664 -3.33111,14.53328 -1.37446,2.11661 -2.01819,3.73366 -2.36361,5.9375 -0.2611,1.66578 -0.7031,3.73992 -0.98223,4.6092 -0.53502,1.66616 -2.7984,3.40212 -4.43978,3.40521 -0.55456,10e-4 -2.23312,1.38492 -4.07684,3.36112 -2.96739,3.18061 -3.37375,3.4417 -7.63765,4.9073 -2.47692,0.85137 -6.0393,2.54146 -7.91638,3.75573 -5.76248,3.72773 -6.79536,4.12763 -10.66111,4.12763 -3.40651,0 -3.52354,-0.0402 -5.19478,-1.78125 z m -48.11505,-106.4684 c 1.83176,-0.21476 4.25261,-0.86091 5.37965,-1.43589 1.30031,-0.66336 3.11202,-1.09215 4.95752,-1.17331 2.87157,-0.12629 2.93892,-0.16154 5.32494,-2.78706 1.32912,-1.46254 2.88965,-3.60639 3.46785,-4.76412 0.94343,-1.88903 1.02071,-2.56262 0.75332,-6.56622 -0.20577,-3.08087 -0.58532,-4.98602 -1.22668,-6.15726 -1.13235,-2.0679 -4.90187,-4.6166 -8.16799,-5.52267 -1.33051,-0.3691 -4.44973,-1.28908 -6.9316,-2.04438 -5.63542,-1.71503 -14.42644,-2.73704 -16.70643,-1.94223 -2.81389,0.98092 -5.2076,3.0309 -7.51871,6.43904 -1.24617,1.83769 -2.85366,3.87562 -3.57219,4.52875 -5.2733,4.79326 -5.32134,8.17915 -0.21166,14.91821 2.26591,2.98847 3.13479,3.53218 7.33636,4.59087 1.83432,0.4622 4.297,1.29413 5.47263,1.84873 2.24804,1.06051 3.13013,1.06563 11.64299,0.0675 z M 183.80247,364.9352 c 0.5225,-0.5225 0.95,-1.11844 0.95,-1.32431 0,-2.53487 1.59328,-11.98161 2.28427,-13.54371 0.97703,-2.20874 3.19233,-4.17141 7.0409,-6.23797 1.34072,-0.71992 2.882,-1.90994 3.42508,-2.64449 1.55658,-2.1054 9.49882,-8.01746 11.49141,-8.55401 1.43842,-0.38732 2.27056,-0.31568 4.10026,0.35302 1.73688,0.63478 3.74064,0.83897 8.23308,0.83897 h 5.9375 l 8.55,4.275 c 8.46572,4.23286 8.56535,4.30075 10.10693,6.8875 2.04793,3.4364 2.54978,5.40213 2.92404,11.45351 0.33086,5.34953 0.88983,6.84203 3.10634,8.29435 2.51503,1.64791 5.92362,-0.75963 8.08939,-5.71369 2.7511,-6.29296 3.52294,-8.25669 4.02251,-10.23417 0.29699,-1.17563 1.05942,-3.74063 1.69429,-5.7 0.63486,-1.95938 1.57805,-6.44813 2.09599,-9.975 0.51794,-3.52688 1.24834,-7.48125 1.62313,-8.7875 0.8349,-2.90992 1.3812,-16.3875 0.66425,-16.3875 -0.2677,0 -1.28968,0.72541 -2.27106,1.61203 -1.31815,1.19087 -2.63624,1.80498 -5.04507,2.35053 -5.47342,1.23963 -13.68509,1.88144 -20.54634,1.60587 -8.85149,-0.35551 -10.04402,-0.82847 -14.44708,-5.72981 -4.5639,-5.08039 -5.23133,-6.09366 -7.12644,-10.8192 -2.79797,-6.97685 -5.06598,-6.87409 -8.07856,0.36601 -2.26157,5.43522 -8.72291,14.22748 -11.42711,15.54941 -4.52444,2.21176 -19.81357,1.72586 -29.7549,-0.94563 -4.80746,-1.29189 -6.78335,-1.27094 -7.30076,0.0774 -0.15825,0.4124 0.1388,2.37824 0.66011,4.36856 0.52131,1.9903 0.94784,4.31266 0.94784,5.16079 0,0.84813 0.30331,3.53318 0.67402,5.96679 0.37072,2.4336 0.90697,6.52783 1.19168,9.09828 1.07201,9.67849 6.55821,22.89229 11.42085,27.50771 2.10982,2.00255 3.3719,2.22279 4.76345,0.83125 z m 8.3125,-56.96264 c 7.68243,-0.43537 10.29861,-1.23251 11.46826,-3.49435 1.08959,-2.10706 1.87291,-11.31481 1.16387,-13.68134 -0.71698,-2.3931 -1.95571,-3.16981 -7.24715,-4.54417 -3.31461,-0.86091 -6.18843,-1.18979 -12.46635,-1.42663 -9.67651,-0.36505 -11.71965,0.085 -15.3564,3.38298 l -2.26223,2.05147 0.0623,4.44359 c 0.1128,8.04186 2.65797,12.13299 8.25017,13.26138 2.26294,0.45662 8.40801,0.45927 16.3875,0.007 z m 60.53687,-1.45579 c 4.64105,-0.53355 8.32298,-2.11401 9.90273,-4.25074 1.27598,-1.72585 2.41995,-5.8339 2.79312,-10.03024 0.50385,-5.66566 -1.29889,-7.33294 -8.48715,-7.84941 -6.23783,-0.44819 -19.05844,0.48707 -22.7823,1.66195 -3.81514,1.20369 -6.10077,3.42029 -6.10077,5.91654 0,3.39383 3.32353,10.30576 6.24496,12.9876 0.63195,0.58012 1.99693,1.25333 3.03327,1.49603 2.55008,0.59719 10.48914,0.6324 15.39614,0.0683 z m -25.30315,-26.52898 c 7.09233,-3.25561 15.82039,-4.6085 26.31227,-4.07852 7.34546,0.37104 8.51651,0.0741 8.51651,-2.15986 0,-0.75755 -0.21686,-1.94774 -0.4819,-2.64486 -0.26505,-0.69713 -0.79276,-3.33717 -1.1727,-5.86675 -0.82509,-5.49335 -1.42755,-7.29931 -4.27277,-12.80818 -3.11541,-6.032 -9.44774,-15.10836 -11.76904,-16.869 -4.21922,-3.20014 -14.77229,-7.51368 -22.24909,-9.09424 -1.72315,-0.36427 -4.24263,-1.09967 -5.59884,-1.63424 -3.20303,-1.26252 -4.52705,-1.22549 -6.94987,0.19438 -1.09459,0.64147 -3.67837,1.61738 -5.74173,2.16869 -4.3489,1.16198 -8.75036,2.61631 -14.43906,4.77096 -5.22363,1.97851 -7.4864,4.2303 -10.57125,10.51998 -1.24232,2.53295 -3.27294,5.95248 -4.5125,7.59896 -2.76251,3.66938 -6.1095,10.64961 -6.75905,14.09617 -0.26521,1.40722 -0.4822,4.88066 -0.4822,7.71875 0,4.62237 0.10483,5.265 1.00587,6.16604 0.90914,0.90914 1.33165,0.97424 4.39375,0.67694 1.86333,-0.18091 4.45663,-0.55616 5.76288,-0.83388 5.57607,-1.18554 20.65383,0.52722 28.04628,3.18591 3.06424,1.10206 3.79183,1.17472 10.03744,1.00244 6.6957,-0.1847 6.75738,-0.19661 10.925,-2.10969 z"
       style="fill:#19232d;fill-opacity:1;stroke:none;stroke-width:0.316667;stroke-dasharray:none" />
  </g>
</svg>
