<?xml version="1.0" encoding="UTF-8" standalone="no"?>
<!-- Created with Inkscape (http://www.inkscape.org/) -->

<svg
   width="32"
   height="32"
   viewBox="0 0 8.4666666 8.4666666"
   version="1.1"
   id="svg56850"
   preserveAspectRatio="xMidYMid meet"
   fill="currentColor"
   class="textIcon"
   inkscape:version="1.2 (dc2aedaf03, 2022-05-15)"
   sodipodi:docname="diamond.svg"
   xmlns:inkscape="http://www.inkscape.org/namespaces/inkscape"
   xmlns:sodipodi="http://sodipodi.sourceforge.net/DTD/sodipodi-0.dtd"
   xmlns="http://www.w3.org/2000/svg"
   xmlns:svg="http://www.w3.org/2000/svg">
  <sodipodi:namedview
     id="namedview56852"
     pagecolor="#505050"
     bordercolor="#eeeeee"
     borderopacity="1"
     inkscape:showpageshadow="0"
     inkscape:pageopacity="0"
     inkscape:pagecheckerboard="0"
     inkscape:deskcolor="#505050"
     inkscape:document-units="mm"
     showgrid="true"
     inkscape:zoom="28.190855"
     inkscape:cx="11.72366"
     inkscape:cy="16.512447"
     inkscape:window-width="1920"
     inkscape:window-height="991"
     inkscape:window-x="-9"
     inkscape:window-y="-9"
     inkscape:window-maximized="1"
     inkscape:current-layer="layer1">
    <inkscape:grid
       type="xygrid"
       id="grid57334"
       empspacing="4" />
  </sodipodi:namedview>
  <defs
     id="defs56847" />
  <g
     inkscape:label="Layer 1"
     inkscape:groupmode="layer"
     id="layer1">
    <path
       style="stroke-width:0.1;stroke-linecap:round"
       id="path57338"
       d="M 2.1812413,4.5103896 C 2.2811264,4.3011729 2.4697096,4.1346726 2.6480571,3.9894375 2.9544796,3.6748649 3.2604731,3.3590001 3.5485715,3.0278974 3.8275406,2.7829597 4.0037265,2.4473321 4.2848295,2.2035722 4.4003073,2.0409664 4.6675438,1.9080284 4.7376555,1.7675865 4.5415493,1.676746 4.3412923,1.5940668 4.1434962,1.5065288 3.8770665,1.4567502 3.9661602,1.8397727 3.83814,1.9934143 3.7084342,2.3622947 3.3947566,2.6166681 3.213814,2.9558937 2.9547705,3.2787316 2.7113886,3.6340267 2.3429451,3.8423037 2.1477157,4.0007768 1.935982,4.1429029 1.721596,4.2756121 c -0.069207,0.043746 0.1490993,0.083055 0.2060411,0.1248535 0.084535,0.036641 0.1690695,0.073283 0.2536042,0.109924 z" />
    <path
       style="stroke-width:0.1;stroke-linecap:round"
       id="path57340"
       d="m 3.8095589,2.0254308 c 0.2530874,-0.1193777 0.3829869,0.315361 0.5417357,0.465581 0.2276685,0.2285681 0.3979133,0.5024487 0.567686,0.7734965 0.1600632,0.1997889 0.3868293,0.3311565 0.555175,0.5202231 C 5.6353723,4.0913223 5.8319515,4.3943028 6.1314882,4.582945 6.2827677,4.6338429 6.3942374,4.526565 6.4874245,4.4258024 6.5770926,4.3400953 6.6667606,4.2543882 6.7564286,4.1686811 6.737047,4.0622142 6.4846109,4.0969258 6.4431989,3.9265148 6.3152435,3.7118428 6.1188471,3.5620098 5.9284301,3.408242 5.6782718,3.1841974 5.3490903,3.0484037 5.1540254,2.7628194 4.9475441,2.5040752 4.8344823,2.1876821 4.6307116,1.9270404 4.5519671,1.8195392 4.4469552,1.4119003 4.290833,1.5419456 4.1304084,1.7031075 3.9699828,1.8642685 3.8095589,2.0254308 Z" />
    <path
       style="stroke-width:0.1;stroke-linecap:round"
       id="path57342"
       d="M 1.8142027,4.5930663 C 2.0933325,4.5255779 2.3158869,4.7216015 2.5334669,4.8613208 2.8190649,5.079214 2.9623142,5.4254739 3.2348553,5.6568985 3.4476545,5.8922571 3.5514966,6.2069192 3.632943,6.4476988 3.7143893,6.6884784 3.9567553,6.7097216 4.1233708,6.6998242 4.3702921,6.6977454 4.6233605,6.6901127 4.8052795,6.557244 4.9871985,6.4243753 4.5025126,6.3951461 4.4377194,6.1684235 4.243641,5.7953904 3.8796729,5.5587325 3.6432347,5.2180411 3.3977202,4.9584765 3.072666,4.7741715 2.8783294,4.4650828 2.7334178,4.3293178 2.6141075,4.0516732 2.4193856,4.0383242 2.2176622,4.2232397 2.015905,4.4081433 1.8142027,4.5930663 Z"
       sodipodi:nodetypes="ccccccccccc" />
    <path
       style="stroke-width:0.1;stroke-linecap:round"
       id="path57344"
       d="m 4.5430013,6.6817139 c 0,0 0.029502,-0.2233927 0.092069,-0.275112 C 4.8609544,5.9355649 5.3192315,5.6489589 5.6483108,5.258336 5.9206035,4.9557433 6.2554838,4.7163906 6.5231522,4.4096797 6.5960218,4.2578498 6.5874073,4.0475286 6.3917968,4.0261177 6.195757,3.9778926 5.9658498,4.1005202 5.819307,4.2303903 5.5104813,4.5033535 5.3894716,4.9207006 5.0927862,5.2050378 4.8215814,5.476605 4.6136361,5.80018 4.3639133,6.0897144 4.1817799,6.3382393 3.8324963,6.426968 3.719998,6.7277867 c -0.081099,0.197676 0.1152215,0.090136 0.2208256,0.079557 z"
       sodipodi:nodetypes="ccccccccccc" />
    <path
       style="stroke-width:0.1;stroke-linecap:round"
       id="path57352"
       d="M 2.8108963,4.4449997 C 3.0870568,4.2991731 3.2002786,3.9814845 3.4064836,3.7607971 3.6800022,3.4191933 4.0388051,3.1540415 4.4051862,2.9190159 4.6023998,2.8256746 4.8610636,2.6185561 5.0757495,2.7661667 5.2585634,2.898876 4.8698508,2.6725942 4.7942728,2.6447857 4.5362214,2.5215742 4.2724856,2.3962288 4.0058364,2.3019721 4.014433,2.5435852 3.8597443,2.7593225 3.7705832,2.9778196 3.5582064,3.3403872 3.3131332,3.6906285 3.0220564,3.994788 2.8190652,4.1760071 2.5976656,4.3533702 2.3355826,4.4344784 2.0366352,4.6639622 2.4978139,4.8379472 2.6989583,4.8565478 2.9324405,4.901457 3.1777286,4.9483065 3.4103926,4.949536 3.5033559,4.7185815 3.7321029,4.5710698 3.9052309,4.3989854 4.3846934,4.0044827 4.9481192,3.7066188 5.5435296,3.5331843 5.6598643,3.6032719 5.4212253,3.4758357 5.3706675,3.4510917 L 4.6053882,3.0590331 C 4.4198856,3.5420972 4.1866723,4.015246 3.9214798,4.4631816 3.6049086,4.9768511 3.3134794,5.3583659 2.8904336,5.7157485 3.1879377,5.8959149 3.4502849,6.1581258 3.7931553,6.2474108 3.8951476,6.0700485 3.9306615,5.8609339 4.0846179,5.7034029 4.3191673,5.3698795 4.5969552,5.0674718 4.9320275,4.832484 5.2716462,4.5862275 5.6235154,4.3115262 6.0456205,4.2338435 6.3338244,4.26706 5.7451587,4.3765618 5.6411967,4.3830098 5.3389635,4.4707133 5.3358891,3.9505313 5.308389,3.9306313 5.1946962,4.3640891 4.8196651,4.6653905 4.6705632,5.0837189 4.5735736,5.3313313 4.3574509,5.5232243 4.326135,5.796467 4.2841651,5.8625296 4.1394361,5.9572836 4.2927111,5.968832 L 4.7671208,6.1354361 C 4.8268642,6.0188404 4.9044808,5.9174796 5.0112292,5.8396235 5.1729207,5.6416069 5.2547226,5.3846627 5.4461071,5.2067089 5.7261435,4.8339104 5.9779554,4.4369755 6.2999341,4.0973165 6.2575459,3.8862154 6.3300853,3.5674464 6.0467878,3.5042102 5.8513896,3.3943198 5.4730681,3.2393086 5.4378134,3.5886977 5.2805121,3.8436505 5.0179385,4.0244244 4.8198445,4.2517809 4.6700617,4.4097414 4.5368287,4.4636776 4.5368287,4.4636776 c 0,0 0.3256338,-0.4755024 0.7095037,-0.7709103 C 5.36889,3.6001322 5.8001815,3.5457937 5.4673116,3.4202408 5.2050873,3.2564869 4.9261397,3.1221662 4.6580845,2.9686004 4.6439195,3.2731741 4.2783218,3.4290062 4.0661857,3.6088474 3.6055097,3.9220423 3.0764178,4.1066491 2.5585754,4.3000311 2.1903126,4.3000282 2.7246905,4.4581628 2.8343653,4.5080224 3.0122237,4.5961069 3.2026181,4.6592389 3.3945052,4.7099522 3.524091,4.3480721 3.7469066,4.0319446 3.9989889,3.7453451 4.2769256,3.3943077 4.5812244,3.0576382 4.9456175,2.7952981 5.0395266,2.7325245 5.2765688,2.6542672 5.0541694,2.5761249 4.7528723,2.3806721 4.478959,2.1442162 4.1734746,1.9562075 4.0158148,2.0176878 4.21323,2.3484734 4.0353938,2.476228 3.8245952,2.8375506 3.5388951,3.1523387 3.2381727,3.4398091 2.9413183,3.6932171 2.5724699,3.8568095 2.3070585,4.1458908 2.199919,4.2817873 2.4165465,4.2794974 2.4977632,4.3283857 c 0.1043762,0.038872 0.2087639,0.077741 0.3131331,0.116614 z"
       sodipodi:nodetypes="cccccccccccccccccccccccccccccccccccccccccccccccccc" />
  </g>
</svg>
