<?xml version="1.0" encoding="UTF-8" standalone="no"?>
<!-- Created with Inkscape (http://www.inkscape.org/) -->

<svg
   width="32"
   height="32"
   viewBox="0 0 8.4666666 8.4666666"
   preserveAspectRatio="xMidYMid meet"
   fill="currentColor"
   class="textIcon"
   version="1.1"
   id="svg5"
   inkscape:version="1.2 (dc2aedaf03, 2022-05-15)"
   sodipodi:docname="foss.svg"
   xmlns:inkscape="http://www.inkscape.org/namespaces/inkscape"
   xmlns:sodipodi="http://sodipodi.sourceforge.net/DTD/sodipodi-0.dtd"
   xmlns="http://www.w3.org/2000/svg"
   xmlns:svg="http://www.w3.org/2000/svg">
  <sodipodi:namedview
     id="namedview7"
     pagecolor="#505050"
     bordercolor="#eeeeee"
     borderopacity="1"
     inkscape:showpageshadow="0"
     inkscape:pageopacity="0"
     inkscape:pagecheckerboard="0"
     inkscape:deskcolor="#505050"
     inkscape:document-units="mm"
     showgrid="false"
     showborder="false"
     inkscape:zoom="9.9317158"
     inkscape:cx="6.0412522"
     inkscape:cy="12.736973"
     inkscape:window-width="1920"
     inkscape:window-height="991"
     inkscape:window-x="-9"
     inkscape:window-y="-9"
     inkscape:window-maximized="1"
     inkscape:current-layer="layer5">
    <inkscape:grid
       type="xygrid"
       id="grid132"
       empspacing="4" />
  </sodipodi:namedview>
  <defs
     id="defs2" />
  <g
     inkscape:groupmode="layer"
     id="layer2"
     inkscape:label="guide"
     style="display:none">
    <circle
       style="fill:none;stroke:#ffcc00;stroke-width:0.1;stroke-linecap:round;stroke-dasharray:none"
       id="path45307"
       cx="4.2333331"
       cy="4.2333331"
       r="3.7041667" />
    <circle
       style="fill:none;stroke:#ffcc00;stroke-width:0.1;stroke-linecap:round;stroke-dasharray:none"
       id="path45880"
       cx="4.2333331"
       cy="4.2333331"
       r="2.1166666" />
  </g>
  <g
     inkscape:groupmode="layer"
     id="layer5"
     inkscape:label="Layer 1">
    <path
       style="fill:currentColor;stroke:none;stroke-width:0.1;stroke-linecap:round;stroke-dasharray:none"
       id="path46237"
       d="M 4.5995193,0.28998237 C 4.0976559,-0.09980822 3.4649333,0.23664068 2.9504092,0.41923923 2.2313433,0.66522307 1.6900264,0.99327952 1.2537228,1.5942522 0.71268507,2.380774 0.46280206,2.9266482 0.32302242,3.672804 0.20172103,4.3203212 0.31567256,5.130397 0.4230211,5.6466159 0.73851165,6.1794629 0.69888074,6.461683 1.0932094,6.9428056 1.5784235,7.448807 1.9756302,7.6669136 2.5372685,8.0654201 2.8841588,8.3257868 2.9292453,8.0022472 3.0527287,7.7257782 L 3.4691374,6.9910144 C 2.8195802,6.5651833 3.1004985,6.4967502 2.6583553,6.4300134 2.098568,6.1898175 2.1230265,6.0518601 1.9441265,5.7858015 1.670856,5.3793956 1.4867194,4.8920861 1.4444257,4.4041786 1.4000138,3.8918353 1.5011644,3.3539126 1.711677,2.8847084 1.9397764,2.3763055 2.2709583,1.8601646 2.7489462,1.5737551 3.1419689,1.3382567 3.5324891,1.1830715 4.1017025,1.3300603 4.34624,1.178701 4.3276859,0.71108816 4.4909712,0.47957631 Z"
       sodipodi:nodetypes="cccaccccccaaaaccc" />
    <path
       style="fill:currentColor;stroke:none;stroke-width:0.1;stroke-linecap:round;stroke-dasharray:none"
       id="path46239"
       d="M 4.3247468,2.1030705 C 4.2220725,1.8995986 4.9609516,1.1979998 4.5623427,1.3081491 4.2515135,1.4041392 3.4505834,1.6999837 3.1770681,1.7723713 2.6424739,1.9138549 2.3479071,2.0318969 2.106716,2.3596908 1.6399589,2.9940427 1.5096613,3.8983466 1.6378643,4.6754107 1.7480027,5.3429816 2.2856779,6.1830239 2.6583553,6.4300134 2.8454128,6.6226903 2.8935926,7.093718 3.1631837,7.1533724 3.6465779,6.8698793 3.7483683,6.2344775 4.0592236,5.740364 c 0,0 -0.2639474,-0.3147384 -0.4350116,-0.4794877 C 3.4124744,5.0397327 3.1720531,4.7496398 3.0368539,4.4630787 2.7897092,4.0745527 2.6625326,3.7885551 2.7682034,3.3532465 2.8551082,3.0312572 3.0244014,2.7164768 3.437006,2.5569037 3.7625518,2.458132 4.167461,2.5764215 4.2868466,2.1592663 Z"
       sodipodi:nodetypes="ccsaaccccccccc" />
    <path
       style="fill:currentColor;stroke:none;stroke-width:0.1;stroke-linecap:round;stroke-dasharray:none"
       id="path46251"
       d="M 3.7028419,1.1047396 C 4.1854874,1.0070086 4.5788776,1.2141219 5.069436,1.3044159 5.597172,1.5009903 5.8320832,1.5796833 6.1290203,1.8416927 6.5344357,2.1994206 6.8655531,2.6730097 7.0369685,3.1857939 7.1956675,3.6605373 7.1652382,4.1876263 7.113693,4.6855317 7.0819611,4.9920493 7.0327172,5.3128443 6.8783298,5.5795361 6.5758784,6.1019966 6.074063,6.6328791 5.5891679,6.8515575 4.9363585,7.1884344 5.6732163,7.8341846 5.8397927,8.2640018 6.4587348,8.1254503 7.2784634,7.4509443 7.8225744,6.9353167 8.2433445,6.4856167 8.2535409,5.8162714 8.2864819,5.2378018 8.231779,4.5996025 8.2092251,3.9581942 8.1369657,3.3221717 8.0431142,2.6664483 7.7661677,2.0171582 7.4641631,1.5739746 6.9596539,1.0624166 6.0041262,0.65585555 5.212044,0.29112258 4.6380502,0.03568332 3.8875414,0.12536431 3.447994,0.56742411 3.4914502,0.75624215 3.6226671,0.92520106 3.7028419,1.1047396 Z"
       sodipodi:nodetypes="ccaaaaccccccccc" />
    <path
       style="fill:currentColor;stroke:none;stroke-width:0.1;stroke-linecap:round;stroke-dasharray:none"
       id="path46253"
       d="M 3.8443712,2.5557327 C 4.2723737,2.4074145 4.6460048,2.6680367 5.017782,2.8245331 5.2921501,3.0382909 5.5757943,3.2021472 5.6836002,3.4991318 5.8258403,3.8909761 5.872039,4.2042526 5.5806345,4.7454729 5.3204215,5.2034404 5.3214949,5.117431 4.8652672,5.4595742 c 0,0 0.4644767,1.6929766 0.6211144,2.3327045 C 6.1479526,6.8304298 6.2778255,6.7103928 6.6597299,5.8540009 6.883055,5.3421896 7.1401602,4.5762736 7.0638025,3.9231688 6.9946546,3.3317315 6.7434911,2.7084428 6.3044093,2.3062156 5.8262369,1.8681788 4.9362858,1.6599504 4.4779301,1.6363649 4.2322963,1.6417206 3.459268,1.2388222 3.457784,1.5702192 3.5410602,1.7738333 3.7610974,2.3521176 3.8443712,2.5557327 Z"
       sodipodi:nodetypes="ccaccccaaccc" />
  </g>
</svg>
