<svg width="32" height="32" version="1.1" viewBox="0 0 8.5 8.5" preserveAspectRatio="xMidYMid meet" fill="currentColor" class="textIcon"xmlns="http://www.w3.org/2000/svg">
 <g transform="matrix(.82 0 0 .94 .6 .16)" fill="currentColor">
  <path d="m9 0.4c-2.3 0.28-5.9 0.25-5.9 0.25l1.4 1.2h1.6s-1.5 1.8-2.3 2.5c0 0 0.27 0.55 0.65 0.56 1-0.66 2.2-1.1 2.9-2v1.1l1.3 0.56s0-3.1 0.32-4.2z"/>
  <path d="m1.3 1.8c0.25-0.32 2 0.065 2-0.078-0.0068-0.14-0.62-0.52-0.9-0.74-1.1 0.15-1.4-0.0062-2.8 0.28 0.62 1.9 0.57 4.3 0.59 6.4 0 0 0.87 0.65 1.4 0.64 2-0.14 4.5-0.076 6.5 1e-7 0.32-0.84 0.41-2.7 0.32-3.1l-0.97-0.28c-0.21 0.7 0.32 1.4 0 2.2-1.8 0.15-4.2 0.16-6.1-0.014 0.13-1.7-0.7-4-0.039-5.3z"/>
 </g>
</svg>
