<?xml version="1.0" encoding="UTF-8" standalone="no"?>
<!-- Created with Inkscape (http://www.inkscape.org/) -->

<svg
   width="32"
   height="32"
   viewBox="0 0 8.4666666 8.4666666"
   preserveAspectRatio="xMidYMid meet"
   fill="currentColor"
   class="textIcon"
   version="1.1"
   id="svg47175"
   inkscape:version="1.2 (dc2aedaf03, 2022-05-15)"
   sodipodi:docname="mac.svg"
   xmlns:inkscape="http://www.inkscape.org/namespaces/inkscape"
   xmlns:sodipodi="http://sodipodi.sourceforge.net/DTD/sodipodi-0.dtd"
   xmlns="http://www.w3.org/2000/svg"
   xmlns:svg="http://www.w3.org/2000/svg">
  <sodipodi:namedview
     id="namedview47177"
     pagecolor="#505050"
     bordercolor="#eeeeee"
     borderopacity="1"
     inkscape:showpageshadow="0"
     inkscape:pageopacity="0"
     inkscape:pagecheckerboard="0"
     inkscape:deskcolor="#505050"
     inkscape:document-units="mm"
     showgrid="true"
     inkscape:zoom="18.530579"
     inkscape:cx="15.730755"
     inkscape:cy="30.166353"
     inkscape:window-width="1920"
     inkscape:window-height="991"
     inkscape:window-x="-9"
     inkscape:window-y="-9"
     inkscape:window-maximized="1"
     inkscape:current-layer="layer1">
    <inkscape:grid
       type="xygrid"
       id="grid47296"
       empspacing="4" />
  </sodipodi:namedview>
  <defs
     id="defs47172" />
  <g
     inkscape:label="Layer 1"
     inkscape:groupmode="layer"
     id="layer1">
    <path
       style="fill:#1c2a99;stroke:none;stroke-width:0.1;stroke-linecap:round"
       id="path47352"
       d="m 4.3774418,3.2165827 c 0.052554,-0.060945 0.1176065,-0.1078852 0.1790864,-0.1589633 0.024768,-0.020579 0.055856,-0.03603 0.072972,-0.063307 0.027831,-0.044353 0.038858,-0.097247 0.058287,-0.1458711 0.023051,-0.2380376 0.013396,-0.1611477 0.046921,-0.4088251 0.010218,-0.075484 0.026173,-0.1503458 0.031559,-0.2263277 0.00597,-0.084267 6.35e-4,-0.1689645 0.00243,-0.2534237 0.00435,-0.2034915 0.010314,-0.2904088 0.020701,-0.4914422 -0.00539,-0.270603 -0.00558,-0.1711776 -0.00277,-0.4260686 6.086e-4,-0.0550938 0.00369,-0.11019722 0.00228,-0.16527593 -0.00209,-0.080694 -0.00616,-0.17663019 -0.047152,-0.25027866 -0.020248,-0.0363788 -0.053651,-0.0636807 -0.080476,-0.095521 -0.2465231,-0.10844104 -0.1736164,-0.0979595 -0.6111015,-0.03624 -0.041641,0.005875 -0.072554,0.0425997 -0.1078216,0.0655076 -0.078458,0.0509624 -0.1487332,0.0983337 -0.2102644,0.1705107 -0.033,0.0387063 -0.057816,0.0836989 -0.086722,0.12554823 C 3.5498532,1.0326395 3.4296281,1.206153 3.3933,1.4074494 3.370421,1.5342239 3.38444,1.5819987 3.39723,1.7097399 c 0.090278,0.1839206 0.1324948,0.383529 0.1774563,0.581624 0.013618,0.060004 0.024873,0.1206036 0.041096,0.1799563 0.044035,0.1611126 0.053754,0.1663333 0.1224048,0.3149399 0.2263454,0.3002611 -0.010213,-0.014047 0.2090126,0.2787044 0.030977,0.041367 0.060034,0.084263 0.093188,0.1239065 0.048139,0.057561 0.1251755,0.1411161 0.1955636,0.1767964 0.034153,0.017312 0.073346,0.022021 0.1100193,0.033033 0,0 0.3533458,-0.3019719 0.3533458,-0.3019719 v 0 C 4.6136282,3.0731931 4.5307847,3.0473102 4.4544686,2.9994053 4.3221809,2.9163658 4.2255437,2.7996798 4.1527912,2.6626899 4.123691,2.6228931 4.092634,2.5844562 4.0654911,2.5432996 3.9691778,2.3972596 3.8940528,2.2344371 3.8587542,2.0622172 3.8459669,1.9998344 3.8354682,1.93621 3.836045,1.8725329 3.8365742,1.8149699 3.853357,1.7587117 3.862011,1.7018012 3.872589,1.5160371 3.882088,1.2988589 3.9896095,1.1390185 c 0.023773,-0.035341 0.055747,-0.064412 0.083621,-0.096618 0.030715,-0.022813 0.059897,-0.0478513 0.092146,-0.0684389 0.052639,-0.0336042 0.1247976,-0.067873 0.1870771,-0.0786772 0.030373,-0.005269 0.1232603,-0.001132 0.092453,-0.002228 C 4.1230167,0.8815997 4.0525793,0.9541562 4.1751653,0.8537463 c 0.019174,-0.006359 0.037329,-0.0196689 0.057522,-0.0190772 0.072447,0.002122 0.1281393,0.0508451 0.1723035,0.10293599 0.077695,0.09164 0.128641,0.19994271 0.1600838,0.31549751 0.019336,0.071058 0.025482,0.145063 0.038222,0.2175944 0.0076,0.077639 0.021061,0.1549266 0.022804,0.2329175 0.00472,0.2112336 -0.01488,0.282955 -0.065595,0.4864869 -0.038214,0.1533623 -0.066301,0.2670865 -0.1476007,0.4038359 -0.03117,0.05243 -0.074261,0.096784 -0.111392,0.1451759 -0.02291,0.028605 -0.047091,0.056238 -0.068732,0.085816 -0.034974,0.047802 -0.03402,0.067039 -0.077706,0.1068213 -0.045849,0.041752 -0.1066747,0.059917 -0.1537589,0.099766 0,0 0.3761282,0.185066 0.3761282,0.185066 z" />
    <path
       style="fill:#1c2a99;stroke:none;stroke-width:0.1;stroke-linecap:round"
       id="path47354"
       d="M 4.4833071,3.483189 C 4.398097,3.4355198 4.3184296,3.3789625 4.2415407,3.3189706 4.2167968,3.3031141 4.189363,3.2908237 4.1673094,3.2713977 4.1469603,3.2534722 4.1327472,3.2295938 4.115926,3.2083226 4.0993313,3.1873359 4.0819929,3.1668471 4.0670699,3.1446406 4.0288514,3.0877687 4.0011633,3.022913 3.9719125,2.9612307 3.9254083,2.877802 3.9243182,2.7775384 3.8746173,2.6956308 3.8379233,2.6351585 3.8137798,2.6217008 3.7602861,2.5749111 3.5675689,2.5671524 3.3749525,2.5470139 3.1821344,2.5516346 c -0.024283,5.821e-4 -0.041336,0.025526 -0.0618,0.038613 -0.062669,0.040078 -0.1473505,0.088612 -0.2002917,0.1389184 -0.023694,0.022516 -0.042615,0.049571 -0.063922,0.074357 -0.016759,0.03507 -0.029065,0.072638 -0.050274,0.1052105 -0.041189,0.063256 -0.1133194,0.1244695 -0.167094,0.1754891 -0.029791,0.028265 -0.058286,0.057936 -0.089107,0.085074 -0.048223,0.042462 -0.1211454,0.096199 -0.173071,0.1354494 -0.024285,0.018788 -0.051283,0.034516 -0.072856,0.056365 -0.021741,0.022021 -0.036638,0.0499 -0.055941,0.074085 -0.07462,0.093491 -0.054065,0.058005 -0.1255685,0.1544423 -0.055228,0.074487 -0.055723,0.080058 -0.1016703,0.1584717 -0.012823,0.02594 -0.028343,0.050711 -0.03847,0.077817 -0.010779,0.028853 -0.015982,0.059492 -0.023945,0.089246 -0.0076,0.028486 -0.015208,0.056971 -0.022813,0.085457 -0.00638,0.027398 -0.01198,0.054992 -0.019154,0.082195 -0.015605,0.059176 -0.026699,0.087885 -0.046448,0.1449208 -0.00696,0.024352 -0.017567,0.047944 -0.020875,0.073053 -0.00395,0.030006 -6.218e-4,0.060528 -7.17e-4,0.090794 -9.63e-5,0.031131 1.033e-4,0.062261 1.459e-4,0.093392 4.32e-5,0.031619 -0.002,0.06331 1.113e-4,0.094859 0.00325,0.048578 0.022378,0.1618835 0.029943,0.2095082 0.00606,0.034148 0.011813,0.068353 0.018194,0.102443 0.00641,0.034223 0.010731,0.068971 0.020161,0.1024866 0.037207,0.1322308 0.1086991,0.2520902 0.1452274,0.3845742 0.012384,0.044914 0.017059,0.091604 0.025588,0.1374066 0.00499,0.041403 0.010313,0.082766 0.014956,0.1242087 0.00948,0.084621 0.00908,0.1330613 0.033115,0.215147 0.043931,0.1500595 0.039426,0.067216 0.073463,0.2158822 0.00712,0.031081 0.00911,0.063116 0.013661,0.094674 0.00575,0.1308203 0.00192,0.027404 0.00452,0.1418442 6.906e-4,0.030411 -6.985e-4,0.079059 0.012744,0.1080571 0.01173,0.025302 0.031389,0.046135 0.045886,0.069959 0.014562,0.023932 0.027495,0.048818 0.041242,0.073226 0.04857,0.093718 0.098803,0.1872745 0.1557719,0.2762462 0.018759,0.029297 0.036996,0.059174 0.059232,0.085928 0.023119,0.027817 0.050981,0.051323 0.076306,0.077148 0.024791,0.025281 0.049359,0.050779 0.074038,0.076169 0.028377,0.027135 0.056476,0.054564 0.08513,0.081406 0.1039606,0.097383 0.085276,0.072779 0.1779378,0.1745057 0.023863,0.026199 0.046744,0.05328 0.069711,0.080269 0.020778,0.024418 0.038675,0.051444 0.061518,0.073943 0.026886,0.02648 0.058031,0.048254 0.087047,0.072382 0.076346,0.080611 0.1683904,0.1360474 0.2729667,0.1723689 0.03523,0.012237 0.071142,0.023432 0.107963,0.029355 0.1059362,0.017044 0.1634995,0.00466 0.2719953,-0.00469 0.2523972,0.012197 0.5055137,0.00481 0.758049,0.00862 0.04139,6.35e-4 0.082657,0.00468 0.1239922,0.00689 0.13829,0.00741 0.082852,0.00534 0.2140201,0.0074 0.012382,-3.704e-4 0.1471407,-0.00404 0.1651286,-0.00601 0.032059,-0.00352 0.1110448,-0.020902 0.1414701,-0.030589 0.058022,-0.018473 0.08201,-0.033249 0.1361972,-0.060531 0.045422,-0.019611 0.093771,-0.031137 0.1397859,-0.049059 0.024474,-0.00953 0.047892,-0.021601 0.072178,-0.031601 0.067448,-0.027771 0.1359895,-0.051532 0.2029629,-0.080539 0.022627,-0.00883 0.045148,-0.017941 0.067883,-0.02649 0.057593,-0.021656 0.075793,-0.025307 0.1309229,-0.051189 0.019426,-0.00912 0.037664,-0.020635 0.057082,-0.029771 0.048071,-0.022619 0.048084,-0.020206 0.097424,-0.032596 0.05458,-0.025286 0.1217226,-0.032982 0.1737495,-0.063345 0.024154,-0.014097 0.046516,-0.031496 0.066865,-0.050682 0.045332,-0.04274 0.075216,-0.089595 0.1108924,-0.1397127 C 6.524313,7.0615667 6.554795,6.9932562 6.573712,6.9210721 6.579032,6.9007651 6.584756,6.8803401 6.58661,6.8594291 6.58928,6.8293441 6.58338,6.7425497 6.5817,6.7123255 6.567489,6.6335995 6.569042,6.553566 6.569045,6.4739714 c 6e-7,-0.024992 0.00259,-0.05011 8.63e-5,-0.074975 C 6.5401623,6.1130514 6.5626513,6.5088686 6.5503383,6.2537073 6.5434783,6.2045023 6.5252583,6.1577643 6.5164703,6.109016 6.5123503,6.086182 6.5131903,6.062623 6.5089103,6.039819 6.4952103,5.966915 6.4671453,5.898445 6.4379333,5.8308024 6.3798606,5.7477372 6.3188033,5.664339 6.2450107,5.5941797 6.1963441,5.5479091 6.1241538,5.4931202 6.0675695,5.4561675 6.0403435,5.4383875 6.0115695,5.4230965 5.9835685,5.4065615 5.861257,5.3528495 5.9438715,5.3825425 5.811075,5.3514055 5.733137,5.3331305 5.746885,5.3339825 5.6755859,5.3133785 c -0.018658,-0.00539 -0.038357,-0.00767 -0.056217,-0.015301 -0.018053,-0.00771 -0.03367,-0.020188 -0.050505,-0.030282 -0.039179,-0.032449 -0.076537,-0.070565 -0.086011,-0.1228511 -0.00124,-0.00693 -0.00375,-0.017187 0.00214,-0.021019 0.00461,-0.00299 0.00616,0.0091 0.0094,0.013531 0.00267,0.00366 0.00556,0.00716 0.00834,0.010739 0.026318,-0.016666 0.057393,-0.00947 0.086364,-0.015846 0.019465,-0.00429 0.037924,-0.012811 0.057579,-0.016116 0.078538,-0.013208 0.09904,-0.00727 0.1794528,-0.00254 0.031583,-0.00111 0.063193,-0.00164 0.094749,-0.00335 0.133966,-0.00724 0.066448,-0.00841 0.1989799,-0.010329 0.058257,-8.466e-4 0.1165461,0.00294 0.1747838,0.00124 0.028164,-8.202e-4 0.056218,-0.00388 0.084327,-0.00582 0.096945,-0.017341 0.1530122,-0.053712 0.2201349,-0.1237355 0.01601,-0.0167 0.032087,-0.033674 0.044842,-0.052976 0.037336,-0.056501 0.038995,-0.082988 0.057529,-0.1486197 0.01465,-0.071444 0.021553,-0.1472541 0.057641,-0.2123027 0.00928,-0.01673 0.020545,-0.025815 0.034035,-0.039157 0.00652,-0.010015 0.014862,-0.019061 0.019571,-0.030047 0.0132,-0.030786 0.020122,-0.078379 0.024582,-0.1102032 0.00778,-0.055504 0.012062,-0.1104712 0.012491,-0.1664438 -0.00153,-0.017158 -0.00164,-0.034509 -0.00463,-0.051474 C 6.8365868,4.1118788 6.8174209,4.060914 6.8021547,4.0148389 6.7698615,3.9173744 6.7369219,3.8203133 6.7066375,3.7221997 6.6824254,3.6309473 6.6445601,3.5441341 6.6092549,3.4567986 6.5984784,3.4301426 6.5890407,3.4028365 6.5759989,3.377213 6.5617088,3.3491346 6.5433051,3.3233422 6.5274696,3.2961055 6.5115813,3.2687759 6.4963773,3.2410528 6.4808312,3.2135264 6.4582225,3.1672211 6.4209208,3.0843883 6.388395,3.0432913 6.3681015,3.0176506 6.3420017,2.9971866 6.3183286,2.9746269 6.295167,2.9525527 6.2193681,2.8827281 6.1927111,2.8617083 6.1716502,2.8451031 6.1489773,2.8306513 6.1271103,2.8151229 6.1050863,2.799695 6.0833463,2.7838518 6.0610356,2.7688406 6.0386413,2.7537726 6.0162678,2.7386112 5.9930163,2.7249018 5.9362784,2.6914366 5.9127186,2.6850393 5.8573696,2.6513888 5.8121435,2.6238928 5.7695295,2.5923137 5.7255356,2.5628862 5.4756692,2.5484351 5.22607,2.5108623 4.9759364,2.5195331 c -0.043188,0.0015 -0.073574,0.045786 -0.1071015,0.073051 -0.1043768,0.08488 -0.1885442,0.2088612 -0.2696742,0.3157473 -0.048178,0.047929 -0.096,0.099143 -0.157213,0.1308817 -0.016198,0.0084 -0.034355,0.012618 -0.050506,0.021108 -0.016515,0.00868 -0.1188961,0.074879 -0.128995,0.081355 -0.042304,0.020301 -0.1174385,0.05754 -0.1672331,0.028198 -0.010935,-0.00644 -0.035741,-0.028883 -0.023124,-0.030251 0.6716254,-0.072831 0.672978,-0.2553695 0.6542479,-0.00193 -0.00503,0.00798 -0.00761,0.01819 -0.015089,0.02394 -0.038196,0.029375 -0.1495605,0.015131 -0.1868144,0.013846 0,0 -0.714425,0.2714522 -0.714425,0.2714522 v 0 c -0.00387,0.035098 -0.015235,0.070168 -0.011613,0.1052925 0.011155,0.1081871 0.095682,0.1850621 0.1721283,0.2508179 0.2907239,0.1954445 0.1122551,0.1018733 0.8417746,0.024855 0.028814,-0.00304 0.048098,-0.032401 0.070963,-0.050196 0.020037,-0.015592 0.038238,-0.033413 0.057589,-0.04985 0.093004,-0.078994 0.032834,-0.024217 0.1106463,-0.097311 0.016423,-0.010168 0.1408383,-0.086892 0.1510552,-0.094564 0.095042,-0.071364 0.1682453,-0.1652405 0.245134,-0.254398 0.032684,-0.027373 0.088968,-0.090492 0.1413643,-0.079333 0.02182,0.00465 0.058165,0.056838 0.035858,0.056515 -0.2105173,-0.00305 -0.4199448,-0.030879 -0.6299173,-0.046318 0.015671,-0.00625 0.030184,-0.017555 0.047013,-0.018743 0.036915,-0.00262 0.1016089,0.021992 0.1342204,0.033617 0.063414,0.022603 0.1267148,0.045523 0.1897907,0.06906 0.019407,0.00953 0.038814,0.019061 0.058221,0.028592 0.019436,0.00856 0.03922,0.016378 0.058313,0.025683 0.019928,0.00971 0.039108,0.020889 0.058663,0.031332 0.017208,0.010795 0.033566,0.023082 0.051625,0.032384 0.1632307,0.08409 -0.04758,-0.040589 0.1193258,0.061411 0.075428,0.087932 0.020944,0.018045 0.082956,0.1158918 0.013041,0.020577 0.027906,0.03996 0.040985,0.060513 0.041883,0.065815 0.074238,0.1359805 0.1075412,0.20637 0.024402,0.066822 0.033277,0.078067 0.040659,0.1484223 0.00795,0.075741 -0.01438,0.134848 -0.015902,0.208466 5.557e-4,0.016449 0.00587,0.048213 0.00148,0.064154 -0.00169,0.00615 -0.00781,0.010459 -0.00952,0.016605 -0.00249,0.00895 -0.00331,0.018275 -0.00497,0.027412 -0.013719,0.066941 -0.00547,0.031262 -0.025564,0.1068403 -0.00978,0.044018 -0.00842,0.094056 -0.026167,0.1360892 -0.00262,0.00623 -0.00831,0.010681 -0.012457,0.016021 -0.0038,-0.00103 -0.00818,-8.467e-4 -0.011388,-0.00312 -0.00275,-0.00196 -0.0035,-0.00578 -0.00521,-0.00869 -0.011147,-0.018897 0.014311,-0.027935 -0.028845,-0.016634 -0.1599279,0.037426 -0.323329,0.056501 -0.4864378,0.073621 -0.02013,0.00515 -0.2149324,0.054912 -0.2253131,0.057946 -0.045483,0.013295 -0.092338,0.023649 -0.1352796,0.043685 -0.1297114,0.060522 -0.1703826,0.1346665 -0.2337202,0.254944 -0.036301,0.1136851 -0.058698,0.1364758 -0.038365,0.2573726 0.00551,0.032777 0.020794,0.063324 0.035049,0.093349 0.044355,0.093427 0.1130165,0.1740855 0.1764242,0.2545435 0.04578,0.047409 0.1109051,0.1197776 0.1660943,0.1568923 0.04948,0.033275 0.1205772,0.054721 0.1765482,0.073359 0.024077,0.00802 0.047661,0.018 0.072473,0.023328 0.02191,0.0047 0.044603,0.0044 0.066904,0.00661 0.1073497,0.011081 0.1980835,0.024082 0.25918,0.1246336 0.00792,0.013036 0.012573,0.027799 0.018857,0.041698 0.022558,0.040856 0.044653,0.081463 0.063729,0.124097 0.00762,0.017037 0.017187,0.033414 0.022302,0.051365 0.00664,0.023294 0.013695,0.09802 0.016277,0.1219018 0.030757,0.118855 0.00401,-0.00262 0.016669,0.1186875 0.00198,0.019034 0.00815,0.037445 0.010628,0.056422 0.00854,0.065405 0.00719,0.1308785 -0.012719,0.1942502 -0.028039,0.1077312 0.00298,8.2e-6 -0.026684,0.079112 -0.00919,0.024511 -0.00998,0.052676 -0.031388,0.070965 -0.00571,0.00353 -0.010734,0.00855 -0.017126,0.010607 -0.014687,0.00472 -0.031852,-0.00352 -0.045958,0.00549 -0.014608,0.00475 -0.028136,0.012351 -0.042385,0.018089 -0.047406,0.019098 -0.076695,0.028987 -0.1260838,0.04669 -0.054722,0.02842 -0.109502,0.056536 -0.1643774,0.084593 -0.034498,0.017637 -0.060281,0.034178 -0.095722,0.050978 -0.020407,0.00967 -0.041466,0.017915 -0.0622,0.026872 -0.0234,0.0087 -0.047069,0.016716 -0.070202,0.026104 -0.040235,0.01633 -0.079819,0.037575 -0.1207307,0.052365 -0.021582,0.0078 -0.04398,0.013139 -0.06583,0.020156 -0.1353651,0.043474 0.00401,0.0018 -0.1383324,0.043291 -0.057969,0.00869 -0.1159475,0.017314 -0.1739302,0.025876 -0.019098,0.00282 -0.038417,0.00424 -0.057377,0.00787 -0.038782,0.00743 -0.076022,0.0219 -0.1153692,0.0269 -0.052342,0.010314 -0.1037865,0.021135 -0.1567193,0.028462 -0.033634,0.00466 -0.1350063,0.00811 -0.1012166,0.011454 0.084538,0.00835 0.169877,0.00283 0.2548218,0.00373 0.08344,8.731e-4 -0.3359132,-0.0067 -0.2503297,-0.00148 -0.035831,-0.0065 -0.07132,-0.015301 -0.1074942,-0.019495 -0.075132,-0.00871 -0.090712,1.585e-4 -0.1636328,2.053e-4 C 3.8592892,7.3016898 3.7863269,7.2901912 3.7160303,7.2555372 3.53671,7.1361765 3.3638098,7.0223683 3.2363087,6.8436161 3.2148774,6.8175494 3.1930808,6.7917774 3.1720115,6.7654164 3.1531467,6.7418129 3.136502,6.7164039 3.1165178,6.6937405 3.0993066,6.6742222 3.078177,6.6584401 3.0606883,6.6391694 3.0004924,6.5728407 2.9743651,6.5157603 2.9529846,6.4289616 2.9471956,6.403477 2.939737,6.3783148 2.9356174,6.3525076 c -0.00319,-0.019971 3.704e-4,-0.040877 -0.0045,-0.060503 -0.00405,-0.016312 -0.013642,-0.030778 -0.021836,-0.045454 C 2.8731485,6.18184 2.8277716,6.1222315 2.7887546,6.0593535 2.7718715,6.0301539 2.752811,6.0021104 2.7381096,5.9717545 2.687951,5.8681836 2.7044274,5.8766357 2.6671878,5.7698864 2.629217,5.6610413 2.5722641,5.5602327 2.5311662,5.4526642 2.515822,5.4083341 2.4963855,5.3652152 2.4851333,5.3196741 2.4659791,5.2421501 2.4587049,5.1291984 2.451614,5.0488423 2.4357454,4.869013 2.4514055,5.0145931 2.4264868,4.8467171 c -0.0046,-0.030993 -0.00816,-0.062132 -0.012242,-0.093197 -0.00224,-0.028903 -0.00599,-0.057729 -0.00671,-0.086709 -2.175e-4,-0.00882 0.0048,-0.1473099 0.00597,-0.1581687 0.013066,-0.1213337 0.0087,-0.028782 0.032933,-0.1387872 0.00443,-0.020129 0.0051,-0.040906 0.00765,-0.061359 0.012574,-0.075419 0.027249,-0.1480931 0.048619,-0.22158 0.00638,-0.021934 0.01152,-0.04431 0.019709,-0.065635 0.00776,-0.020219 0.019233,-0.038827 0.028011,-0.058627 0.00854,-0.01927 0.015951,-0.039022 0.023927,-0.058532 0.032122,-0.065356 0.064426,-0.1273022 0.1111459,-0.1838849 0.1721263,-0.2084642 -0.060558,0.082437 0.1325068,-0.1281652 0.018076,-0.019717 0.030243,-0.044129 0.045365,-0.066193 0.032427,-0.046678 0.078363,-0.1152033 0.1150585,-0.1575115 0.025125,-0.028966 0.052834,-0.055602 0.080124,-0.082537 0.04885,-0.048213 0.1176732,-0.1177698 0.1820035,-0.1466369 0.035254,-0.015819 0.075042,-0.018468 0.1125638,-0.027702 0.071058,-0.014486 0.1437494,-0.033691 0.2169723,-0.031402 0.020804,6.614e-4 0.041913,0.00201 0.061985,0.00752 0.015049,0.00412 0.05747,0.021124 0.041866,0.02095 -0.1634138,-0.00183 -0.32639,-0.017296 -0.489585,-0.025942 0.00175,-0.013025 -7.143e-4,-0.027369 0.00525,-0.039076 0.013787,-0.027016 0.046958,-0.024119 0.070485,-0.01878 0.07464,0.016946 0.1249183,0.072789 0.1725698,0.1283948 0.055114,0.055622 0.1115364,0.1105168 0.1617498,0.1707299 0.019484,0.023365 0.036921,0.04838 0.056178,0.071934 0.019256,0.023551 0.042458,0.04403 0.059331,0.069342 0.017161,0.025747 0.028036,0.055169 0.042054,0.082753 0.065586,0.080626 0.1254609,0.16676 0.2019326,0.2376467 0,0 0.5293855,-0.3023542 0.5293855,-0.3023542 z" />
  </g>
</svg>
