<?xml version="1.0" encoding="UTF-8" standalone="no"?>
<!-- Created with Inkscape (http://www.inkscape.org/) -->

<svg
   width="32"
   height="32"
   viewBox="0 0 8.4666666 8.4666666"
   version="1.1"
   id="svg46272"
   xml:space="preserve"
   inkscape:version="1.2 (dc2aedaf03, 2022-05-15)"
   sodipodi:docname="openLock.svg"
   class="textIcon"
   preserveAspectRatio="xMidYMid meet"
   xmlns:inkscape="http://www.inkscape.org/namespaces/inkscape"
   xmlns:sodipodi="http://sodipodi.sourceforge.net/DTD/sodipodi-0.dtd"
   xmlns="http://www.w3.org/2000/svg"
   xmlns:svg="http://www.w3.org/2000/svg"><sodipodi:namedview
     id="namedview46274"
     pagecolor="#505050"
     bordercolor="#eeeeee"
     borderopacity="1"
     inkscape:showpageshadow="0"
     inkscape:pageopacity="0"
     inkscape:pagecheckerboard="0"
     inkscape:deskcolor="#505050"
     inkscape:document-units="mm"
     showgrid="false"
     inkscape:zoom="22.278893"
     inkscape:cx="14.834669"
     inkscape:cy="13.62276"
     inkscape:window-width="1920"
     inkscape:window-height="991"
     inkscape:window-x="-9"
     inkscape:window-y="-9"
     inkscape:window-maximized="1"
     inkscape:current-layer="layer1"><inkscape:grid
       type="xygrid"
       id="grid46393"
       empspacing="4" /></sodipodi:namedview><defs
     id="defs46269" /><g
     inkscape:label="Layer 1"
     inkscape:groupmode="layer"
     id="layer1"><path
       id="path47115"
       style="stroke:none;stroke-width:0.1;stroke-linecap:round"
       d="M 0.88375629,3.4799179 C 0.72734552,3.7811439 0.83608303,4.3265959 0.81797617,4.7502058 0.79216041,5.3541652 0.73290387,5.9586733 0.75687355,6.5627088 0.76883226,6.864068 0.85891752,7.4617253 0.85891752,7.4617253 1.3804861,7.6884648 2.0057119,7.5111183 3.1460946,7.5421133 4.0802316,7.5258949 6.2362882,7.910914 6.3214996,7.4111669 6.2007961,6.6909162 6.1841848,5.9716087 6.2048563,5.2985825 6.2216454,4.5717862 6.4390994,4.1996733 6.3442802,3.6512397 6.3146038,3.5116996 6.2357623,3.364385 6.1135616,3.2907705 6.0081678,3.2272805 5.8696571,3.2474166 5.7457103,3.2601953 5.5701752,3.2565015 5.2155507,3.2453694 5.5110022,3.2528832 4.9918653,3.2413059 4.4636983,3.2168792 3.9606494,3.3708281 3.3162031,3.4296159 3.2610061,3.4061201 2.6537722,3.3165672 2.1319073,3.283691 1.9004555,3.2772386 1.3803761,3.3350897 c -0.1644534,0.059808 0.051009,0.168265 0.096817,0.252747 l 0.262722,0.2937007 c 0.5665454,-0.024979 1.1064177,0.1197852 1.6620425,0.1320809 0.3161493,0.007 0.4044833,-0.077844 0.9480974,-0.033245 0.5436141,0.044599 0.8580614,-0.1963155 1.1974268,0.013844 0.085662,0.053048 0.1157954,0.1707051 0.1378153,0.269027 0.076384,0.3410652 -0.02189,0.6986874 -0.034359,1.0479789 -0.00518,0.145165 -0.017742,0.2901934 -0.016814,0.4354479 0.002,0.3133957 0.043139,0.6256058 0.048283,0.9389656 0.00296,0.1803018 0.015274,0.555998 -0.010033,0.5408853 C 5.6470675,7.2114095 4.8740269,7.2005256 4.0863613,7.2553908 2.8601804,7.1266392 2.453116,7.2233553 1.2592444,7.2316265 c 0,0 0.048864,0.00239 0.00491,-0.3240333 -0.14764,-1.0829683 -0.1084533,-1.5413743 0.020422,-2.6722658 l 0.032944,-0.2957796 c 0,0 -0.37152991,-0.4509563 -0.43376411,-0.4596299 z"
       sodipodi:nodetypes="caacccccacccccccacaaaaaccccccc" /><path
       style="stroke:none;stroke-width:0.1;stroke-linecap:round"
       id="path47117"
       d="m 5.3167178,1.5509821 c 0.030797,-0.1596389 0.071104,-0.3254846 0.1689617,-0.4538814 0.07759,-0.10180446 0.1934744,-0.17499945 0.3114807,-0.22458662 0.127363,-0.0535189 0.270327,-0.0746905 0.4084137,-0.0704892 0.3097096,0.009423 0.674213,0.006419 0.9047099,0.21349382 0.1445959,0.1299027 0.1430328,0.3093624 0.1937489,0.5500049 -0.027158,0.5474189 -0.00512,0.6277816 -0.040665,1.1058462 0.091331,0.2138768 0.4647167,0.377637 0.6833968,0.3671968 0,0 0.00181,-0.9697599 0.00806,-1.4143333 0.00248,-0.156057 -0.036284,-0.3107397 -0.07217,-0.4626348 C 7.8460905,1.0068302 7.8247703,0.84005868 7.7374553,0.70714402 7.6609619,0.59070253 7.539958,0.50733863 7.4225698,0.43230618 7.2918164,0.3487309 7.1483769,0.27866902 6.9974622,0.24252971 6.6791806,0.16631129 6.3379446,0.12987644 6.0168586,0.19325015 5.6048431,0.2745709 5.1868668,0.40539458 4.8769415,0.72982961 4.8234732,0.7858279 4.7835263,0.85349024 4.7413219,0.9184014 4.6935453,0.99188288 4.6363313,1.0622215 4.608504,1.1453345 4.5642986,1.2773649 4.564835,1.4210522 4.559893,1.5601986 c 0.042206,0.4945016 -0.00429,1.608608 0.00568,2.0099446 0.1065958,0.097975 0.765737,-0.061704 0.765737,-0.061704 0,0 -0.00961,-1.5527661 -0.014592,-1.9574571 z"
       sodipodi:nodetypes="caaaaccccaaaaacaacccc" /><path
       style="stroke:none;stroke-width:0.1;stroke-linecap:round"
       id="path47133"
       d="m 1.887421,4.8315454 c 0.022821,0.014936 0.1314347,0.086348 0.1400545,0.090095 0.058714,0.025519 0.1847224,0.048273 0.2461046,0.046321 0.3696636,-0.011761 0.3037741,-0.00411 0.5544081,-0.076294 0.1234776,-0.01937 0.2393966,-0.071689 0.3620757,-0.094016 0.6822129,-0.063132 0.073153,-0.080692 0.7755261,-0.052438 0.051944,0.01307 0.1066946,0.013295 0.1582823,0.027706 0.243154,0.1330199 0.2074859,0.2032653 0.3695663,-0.022307 l 0.4117901,0.09168 v 0 c 0,0 0.1404261,-0.159282 0.1052508,-0.2609738 -0.010795,-0.031208 -0.043271,-0.051349 -0.071353,-0.068722 -0.08766,-0.054229 -0.1339427,-0.041881 -0.2343381,-0.04549 -0.05463,0.00705 -0.1093118,0.013703 -0.1638898,0.02114 -0.063014,0.00859 -0.1256643,0.019963 -0.1888773,0.026932 -0.1502357,0.016563 -0.4513947,0.030332 -0.5700654,0.031602 -0.6454092,-0.016537 -0.1447536,0.031591 -0.5505624,0.064475 -0.065336,0.00842 -0.129001,0.027702 -0.1944137,0.035503 -0.1394061,0.016626 -0.2810526,0.00938 -0.4370495,0.015797 -0.155997,0.00642 -0.174416,-0.00141 -0.193629,-0.00523 -0.036075,-0.00716 -0.030507,0.0083 -0.031705,-0.01832 z"
       sodipodi:nodetypes="cccccccccsssccsccscccc" /><path
       style="stroke:none;stroke-width:0.1;stroke-linecap:round"
       id="path47137"
       d="m 1.8538114,6.5349196 c 0.00656,0.0084 0.010093,0.020548 0.019685,0.025191 0.072226,0.034968 0.1489134,0.019203 0.226174,0.018034 0.0572,-8.732e-4 0.114397,-0.00209 0.1716027,-0.0023 0.1202773,-3.969e-4 0.2405531,0.00124 0.3608309,0.00148 0.1475102,-0.00193 0.2951699,0.00108 0.4425309,-0.00582 0.063557,-0.00298 0.1262182,-0.016214 0.1893883,-0.023823 0.2911572,-0.041665 0.085011,-0.04384 0.3490634,-0.050064 0.065616,-0.00188 0.1313005,-0.00209 0.1968471,-0.00564 0.07445,-0.00403 0.2853052,-0.02549 0.3613099,-0.02871 0.102371,-0.00434 0.2110762,-0.00111 0.3133649,0.0076 0.041401,0.00353 0.082526,0.00978 0.123789,0.014663 0.080643,0.00933 0.162882,0.038516 0.245278,0.029137 0.020823,-0.00238 0.043128,-0.00433 0.06098,-0.015311 0.021074,-0.012962 0.043948,-0.030059 0.051235,-0.053702 0.010044,-0.032587 -0.00212,-0.068167 -0.00317,-0.1022509 L 4.4381775,6.0830378 v 0 c 0,0 -0.032427,-0.041098 -0.046894,-0.062877 -0.00529,-0.00797 -0.00504,-0.019606 -0.01215,-0.026011 -0.00614,-0.00553 -0.03915,0.00672 -0.048983,0.00981 -0.041344,0.012994 -0.082345,0.027065 -0.123742,0.039895 -0.1179337,0.034094 -0.2364067,0.064621 -0.3574901,0.085825 -0.364203,0.057091 -0.2300629,0.1158125 -0.5966756,0.145816 -0.4428819,1.875e-4 -0.3455852,-8.757e-4 -0.6755812,-0.025188 -0.044025,-0.00671 -0.087565,-0.016666 -0.1306387,-0.027974 -0.033652,-0.00883 -0.065134,-0.025445 -0.099229,-0.032375 -0.069147,-0.014052 -0.092651,-0.00525 -0.1571203,0.00487 l -0.335864,0.3400787 z"
       sodipodi:nodetypes="cccccccccccccssccscscccccccccc" /></g></svg>
