<?xml version="1.0" encoding="UTF-8" standalone="no"?>
<!-- Created with Inkscape (http://www.inkscape.org/) -->

<svg
   width="32"
   height="32"
   viewBox="0 0 8.4666666 8.4666666"
   preserveAspectRatio="xMidYMid meet"
   fill="currentColor"
   class="textIcon"
   version="1.1"
   id="svg47175"
   inkscape:version="1.2 (dc2aedaf03, 2022-05-15)"
   sodipodi:docname="windows.svg"
   xmlns:inkscape="http://www.inkscape.org/namespaces/inkscape"
   xmlns:sodipodi="http://sodipodi.sourceforge.net/DTD/sodipodi-0.dtd"
   xmlns="http://www.w3.org/2000/svg"
   xmlns:svg="http://www.w3.org/2000/svg">
  <sodipodi:namedview
     id="namedview47177"
     pagecolor="#505050"
     bordercolor="#eeeeee"
     borderopacity="1"
     inkscape:showpageshadow="0"
     inkscape:pageopacity="0"
     inkscape:pagecheckerboard="0"
     inkscape:deskcolor="#505050"
     inkscape:document-units="mm"
     showgrid="true"
     inkscape:zoom="7.9197957"
     inkscape:cx="40.720747"
     inkscape:cy="10.416935"
     inkscape:window-width="1920"
     inkscape:window-height="991"
     inkscape:window-x="-9"
     inkscape:window-y="-9"
     inkscape:window-maximized="1"
     inkscape:current-layer="layer1">
    <inkscape:grid
       type="xygrid"
       id="grid47296"
       empspacing="4" />
  </sodipodi:namedview>
  <defs
     id="defs47172" />
  <g
     inkscape:label="Layer 1"
     inkscape:groupmode="layer"
     id="layer1">
    <path
       id="path47320"
       style="fill:#1c2a99;stroke:none;stroke-width:0.1;stroke-linecap:round"
       d="m 0.6706468,4.2897626 c 0.01147,0.00752 0.0215321,0.017838 0.0344102,0.02255 0.0274718,0.010057 0.0568763,0.013745 0.08516,0.02122 0.1095539,0.028949 0.0796003,0.026918 0.20594849,0.047209 0.0530141,0.00851 0.10670401,0.012576 0.15959531,0.02182 0.055288,0.00967 0.1098178,0.023252 0.1647267,0.034876 0.1857366,0.042853 0.3717104,0.086032 0.559599,0.1186529 0.070041,0.01216 0.140032,0.025469 0.2107671,0.032546 0.1734487,0.017357 0.40995,0.019529 0.5820623,0.02367 0.175532,0.00696 0.4140354,0.01555 0.5901085,0.025926 0.092632,0.00546 0.1854054,0.00982 0.2776992,0.019434 0.2306553,0.024019 0.2868943,0.045782 0.5172022,0.084413 0.09022,0.015134 0.1808948,0.027413 0.2713424,0.04112 0.3758848,0.055131 0.1539946,0.027757 0.5432832,0.063306 0.086833,0.00793 0.1735736,0.016846 0.2604164,0.024662 0.079592,0.00716 0.1590038,0.01787 0.2388804,0.020275 0.6008698,0.018092 0.5373397,0.016539 0.9450271,-0.00238 0.3464163,-0.014999 0.099406,-3.969e-4 0.4394592,-0.030454 0.070435,-0.00623 0.1411501,-0.00938 0.2114452,-0.017026 0.067165,-0.00731 0.1335905,-0.020608 0.2007661,-0.027818 0.3677726,-0.039472 0.00708,0.016367 0.3418773,-0.040244 0.083252,-0.037483 0.1782162,-0.037232 0.2629358,-0.069495 0.032137,-0.012237 0.060585,-0.032578 0.090321,-0.04985 0.025109,-0.014587 0.070177,-0.016931 0.07417,-0.045695 0.047464,-0.3419367 0.00314,-0.2298438 0.00314,-0.2298438 L 7.4626907,4.0985966 v 0 c -0.1954527,0.037321 0.045124,0.00602 -0.2826144,-0.05292 -0.02594,-0.00466 -0.050904,0.013729 -0.076575,0.019701 -0.02654,0.00617 -0.05405,0.00846 -0.080017,0.016719 -0.027246,0.00867 -0.052557,0.022529 -0.078836,0.033792 -0.037092,0.00988 -0.074185,0.019756 -0.1112777,0.029635 -0.041599,0.011311 -0.083449,0.021736 -0.1247958,0.033934 -0.044965,0.013266 -0.088354,0.032128 -0.1340863,0.04244 -0.05863,0.013219 -0.1187027,0.018952 -0.1781265,0.027956 -0.062501,0.00947 -0.1248227,0.020431 -0.1876441,0.027475 C 6.0720982,4.2926476 5.9341566,4.2943626 5.5288392,4.3292876 5.1235218,4.3642126 4.9347011,4.3453002 4.7453864,4.3448345 4.6453155,4.3402943 4.5453104,4.3339337 4.445173,4.3312138 4.2520473,4.3259724 4.0283381,4.3292823 3.834621,4.3282822 3.535518,4.3267211 3.2363746,4.323861 2.9373187,4.3184106 2.2758703,4.2712338 3.0131578,4.3256967 2.3945185,4.2745951 2.1238158,4.2522341 1.851837,4.2390522 1.5836133,4.1932857 1.5316847,4.1820533 1.4787441,4.1747625 1.4278276,4.1595886 1.3750993,4.143875 1.2845916,4.0987432 1.2310948,4.0739956 c -0.022284,-0.010308 -0.04541,-0.018885 -0.06708,-0.030429 -0.016188,-0.00862 -0.029676,-0.021923 -0.046188,-0.029911 -0.012108,-0.00586 -0.025846,-0.00746 -0.03877,-0.011187 L 0.6706458,4.2897608 Z M 3.6259754,1.196564 c 0.013785,0.070723 0.017484,0.1417482 0.034759,0.2121667 0.013081,0.053319 0.0318,0.1051415 0.0451,0.1584067 0.042559,0.1704375 0.057655,0.2719347 0.089833,0.4492022 0.032316,0.2007039 0.059635,0.402174 0.091235,0.6029859 0.018418,0.1170487 0.034196,0.23461 0.057473,0.3507899 0.027642,0.1379632 0.06777,0.2732344 0.095207,0.4112387 0.02914,0.1465672 0.048188,0.2949725 0.074446,0.4420835 0.029425,0.1648534 0.06173,0.3291795 0.092596,0.4937691 0.05401,0.6418924 0.036193,0.3774588 0.072875,1.028111 0.02458,0.4359903 0.054283,0.6148245 -0.00101,1.0432122 -0.026384,0.2044387 -0.1133663,0.5030237 -0.1690629,0.7085216 -0.085083,0.2476076 -0.048901,0.1878031 -0.1641901,0.3819842 -0.018261,0.030757 -0.052074,0.054939 -0.058145,0.090189 -0.0063,0.036598 0.061698,0.073017 0.081559,0.086452 0,0 0.810088,0.047111 0.810088,0.047111 v 0 c 0.038515,-0.00228 0.094255,0.0065 0.1020043,-0.057483 C 4.8854328,7.6066115 4.8613821,7.5697912 4.851029,7.5322151 4.773391,7.2504455 4.8191922,7.4513182 4.7537033,7.105769 4.7308328,6.9983926 4.7090742,6.8907733 4.68509,6.7836404 4.6551331,6.6498271 4.6153334,6.5180675 4.5918868,6.3829614 4.5017187,5.8633817 4.5433437,5.8739346 4.495647,5.3348762 4.4731574,5.0806995 4.4001631,4.5620728 4.3656853,4.3069533 4.3576816,4.1409672 4.3508474,3.9749206 4.3416743,3.8089951 4.3334961,3.6610546 4.3171607,3.513506 4.3136372,3.3653817 c -0.00327,-0.137563 0.00653,-0.2751376 0.00767,-0.4127349 9.525e-4,-0.1155833 -0.00327,-0.2311869 -0.0014,-0.346759 0.00444,-0.2741011 0.013451,-0.3309553 0.035652,-0.5960594 0.022611,-0.1586887 0.033645,-0.2818953 0.077711,-0.4341162 0.013332,-0.046053 0.03379,-0.089741 0.051375,-0.1343442 0.017359,-0.044029 0.03458,-0.088151 0.053935,-0.1313392 0.00603,-0.013462 0.013327,-0.026323 0.019989,-0.039484 0,0 -0.9325911,-0.073981 -0.9325911,-0.073981 z M 0.60585892,0.89055778 C 0.45348647,1.265174 0.57511658,1.6763988 0.60520214,2.0636944 0.72675912,2.6152927 0.75431949,3.1865875 0.76124837,3.7503604 0.73574595,4.3778501 0.69003942,5.0037393 0.67547605,5.6312033 0.65727526,6.1603758 0.59364807,6.6988058 0.4246649,7.1995974 0.3479983,7.6726656 0.85939751,7.8683283 1.2431601,7.7674749 1.686344,7.7061066 2.1303998,7.7578579 2.5730021,7.7796419 2.8294495,7.7729956 3.3816693,7.7581696 3.4235906,7.7610661 4.0044877,7.7424831 4.584206,7.8060895 5.1654388,7.8071615 5.8340887,7.875285 6.5098836,7.9363009 7.1610107,8.1088267 7.48677,8.0462067 7.6755318,7.6854448 7.7276624,7.3754961 7.7744266,6.5725209 7.7753436,5.7664451 7.717491,4.9636816 7.6940575,4.2725956 7.8374847,3.5907451 7.8538269,2.901133 7.8526019,3.2492663 7.8853797,2.6457278 7.877854,2.517734 7.9165893,2.1566623 7.8680317,1.7903636 7.9384232,1.4328932 7.9803883,1.1227577 7.9389102,0.58430774 7.5237278,0.58009035 6.3924215,0.61823612 5.2619203,0.69616686 4.1293411,0.69173836 3.4494207,0.69987983 2.7728976,0.77281444 2.0935128,0.79339829 1.6069738,0.8017935 1.1129953,0.76214655 0.63278368,0.85472724 0.47942562,0.9912892 0.73171446,1.1107364 0.81132072,1.216112 0.98105375,1.3755806 1.1354267,1.5977544 1.3994255,1.5749723 2.1294537,1.4628519 2.8703285,1.4604524 3.6045115,1.3878262 4.3933169,1.3597961 5.1830856,1.3955696 5.9721444,1.3744232 6.2627485,1.4147161 6.7010757,1.3458613 6.8938402,1.526374 6.7112239,1.9589566 6.8937974,2.4227886 6.8713111,2.8716951 6.9017369,3.2950782 6.926433,3.7200652 6.9813313,4.1425809 7.0989422,5.032152 6.9660393,5.9239446 6.866219,6.8073929 6.8701706,7.320074 6.2597486,7.2299068 5.9112924,7.245369 5.5155157,7.2463994 5.1207966,7.2703817 4.7261261,7.2949611 4.9711763,7.3071269 4.4321783,7.3066306 4.3199852,7.3062527 3.6873162,7.2741183 3.0547745,7.2299013 2.421227,7.2162177 2.1410863,7.161108 1.7135589,7.1576975 1.5399238,7.006398 1.4409448,6.550388 1.3598203,6.0922655 1.3441151,5.6249825 1.3052627,5.1965003 1.2961344,4.7662677 1.2396859,4.3390476 1.230933,4.085177 1.1652607,3.6303851 1.1569987,3.3017251 1.1439624,2.8040492 1.0755937,2.3086117 1.1217197,1.8105315 1.026658,1.587797 1.3499876,1.2409834 1.2382089,1.1710622 1.0274255,1.0775607 0.81664223,0.98405926 0.60585892,0.89055778 Z" />
  </g>
</svg>
