<?xml version="1.0" encoding="UTF-8" standalone="no"?>
<!-- Created with Inkscape (http://www.inkscape.org/) -->

<svg
   width="32"
   height="32"
   viewBox="0 0 8.4666665 8.4666666"
   version="1.1"
   id="svg5"
   inkscape:version="1.2 (dc2aedaf03, 2022-05-15)"
   sodipodi:docname="linkout.svg"
   xmlns:inkscape="http://www.inkscape.org/namespaces/inkscape"
   xmlns:sodipodi="http://sodipodi.sourceforge.net/DTD/sodipodi-0.dtd"
   xmlns="http://www.w3.org/2000/svg"
   xmlns:svg="http://www.w3.org/2000/svg">
  <sodipodi:namedview
     id="namedview7"
     pagecolor="#505050"
     bordercolor="#eeeeee"
     borderopacity="1"
     inkscape:showpageshadow="0"
     inkscape:pageopacity="0"
     inkscape:pagecheckerboard="0"
     inkscape:deskcolor="#505050"
     inkscape:document-units="mm"
     showgrid="false"
     inkscape:zoom="20.668219"
     inkscape:cx="5.8785906"
     inkscape:cy="16.232652"
     inkscape:window-width="1920"
     inkscape:window-height="991"
     inkscape:window-x="-9"
     inkscape:window-y="-9"
     inkscape:window-maximized="1"
     inkscape:current-layer="layer1" />
  <defs
     id="defs2" />
  <g
     inkscape:label="Layer 1"
     inkscape:groupmode="layer"
     id="layer1">
    <g
       id="g1010"
       transform="matrix(0.81679147,0,0,0.94313385,0.59815355,0.15543022)">
      <path
         style="fill:#19232d;stroke:#19232d;stroke-width:0.264583;stroke-linecap:round;stroke-dasharray:none"
         id="path949"
         d="M 4.822377,4.8135627 C 4.818747,4.7932157 4.802734,4.7712477 4.811484,4.7525217 4.834857,4.7024887 4.9518756,4.6975747 4.980848,4.6895387 5.016614,4.6796187 5.05278,4.6692237 5.0857283,4.6521337 5.1451973,4.6212857 5.2026731,4.5611027 5.2504375,4.5164144 5.2721305,4.4814664 5.2956305,4.4475774 5.3155145,4.4115695 5.3964345,4.2650287 5.3591745,4.289177 5.4702976,4.1547793 5.5805865,4.0213906 5.587119,4.040353 5.7178973,3.9244092 c 0.04575,-0.040561 0.088787,-0.084082 0.1331809,-0.1261234 0.2235412,-0.3382794 -0.025699,0.00618 0.257152,-0.28857 C 6.1534476,3.4625946 6.1869147,3.4054139 6.2284101,3.3549849 6.2704027,3.303951 6.3267436,3.2633528 6.3585954,3.2054453 6.6379198,2.6976289 6.2030419,3.2555423 6.5794932,2.8105391 6.7600311,2.6308588 6.7191744,2.6790726 6.8817883,2.4878297 c 0.045854,-0.053927 0.085688,-0.1132361 0.1356072,-0.1634245 0.047657,-0.047914 0.1075306,-0.082416 0.1558774,-0.1296343 0.044171,-0.04314 0.079115,-0.094864 0.1207085,-0.140494 0.039033,-0.042821 0.080708,-0.083157 0.1210625,-0.1247352 0.068794,-0.077326 0.1594667,-0.1285495 0.2361073,-0.1964271 0.032525,-0.028806 0.059764,-0.063154 0.091525,-0.092799 C 7.8226492,1.5656706 7.9124519,1.50105 7.9979917,1.433058 8.0809977,1.387353 8.1695772,1.3136138 8.2636834,1.2912477 c 0.031885,-0.00758 0.092868,-0.00883 0.1264771,-0.010296 0.036703,2.15e-4 0.1103995,3.704e-4 0.1425845,-0.024569 0.00723,-0.0056 0.011811,-0.013961 0.017716,-0.020941 0.00576,-0.014678 0.013343,-0.028179 0.012748,-0.044452 -1.778e-4,-0.00487 -0.00344,-0.00925 -0.00388,-0.014107 -8.467e-4,-0.00946 0.0022,-0.022441 0.00243,-0.032311 0.05881,-0.69422106 -1.3277056,-0.82368414 -1.7131316,-1.03032314 -0.010935,-0.005862 -0.011136,0.0221784 -0.017026,0.0330982 -0.00641,0.0118749 -0.013232,0.023516 -0.019849,0.0352741 -0.010898,0.009781 -0.020069,0.0219271 -0.032696,0.0293417 -0.043162,0.0253428 -0.075434,0.0207055 -0.1180643,0.0499493 -0.02128,0.0145976 -0.03659,0.0364283 -0.055772,0.05369 C 6.396039,0.50385257 6.6926414,0.22606388 6.4470988,0.45841872 6.3960829,0.47431859 6.3450104,0.49003889 6.2940506,0.5061183 6.140619,0.55453073 6.0754857,0.58142147 5.9119968,0.6105876 5.6325518,0.66044013 5.6945413,0.62703357 5.408133,0.66956939 5.3262468,0.6817307 5.2456392,0.70133029 5.1643925,0.71721077 5.0796549,0.73041718 4.9948266,0.74305368 4.91018,0.7568299 4.6877951,0.79302284 4.6212857,0.81508551 4.3923698,0.82077771 4.1447595,0.82693482 4.0605503,0.80479449 3.812337,0.78575772 3.730073,0.77944855 3.6476037,0.77628299 3.56524,0.77154581 3.3712864,0.75415787 3.17984,0.717694 2.9887248,0.68158944 2.9519983,0.67465119 2.9153725,0.66718396 2.87876,0.6596671 2.7922561,0.6419072 2.8312004,0.64337652 2.7766115,0.64428277 3.2289787,0.96714626 3.4703377,1.1433343 4.0227972,1.4990776 c 0.013338,0.00859 -0.024614,-0.028184 -0.01977,-0.04329 0.00399,-0.012441 0.024937,-0.00781 0.037406,-0.011709 0,0 -0.1322445,-0.090063 -0.1322445,-0.090063 v 0 c -0.012491,0.00394 -0.024445,0.013144 -0.037476,0.011813 -0.027709,-0.00283 -0.102316,-0.040607 -0.08009,-0.02382 0.6163196,0.4654936 0.7335038,0.5348173 1.2361997,0.8619313 0.00685,-0.00351 0.017079,-0.00366 0.020545,-0.010534 0.00514,-0.010196 0.0013,-0.022804 0.00204,-0.034202 0.00103,-0.016455 0.00122,-0.032995 0.00325,-0.049356 0.00408,-0.03278 0.020611,-0.1229492 0.033232,-0.1483421 0.015624,-0.031433 0.041062,-0.056943 0.061593,-0.085414 0.035657,-0.027277 0.072706,-0.052824 0.1069705,-0.081831 0.037847,-0.03204 0.068558,-0.072589 0.1091253,-0.1011062 0.2487305,-0.1748491 0.5708615,-0.1656269 0.854398,-0.238271 0.085077,-0.013496 0.1709735,-0.022576 0.2552314,-0.040489 0.7406796,-0.1574646 -0.3116435,0.037179 0.428091,-0.1136248 0.1657573,-0.033792 0.2823155,-0.040201 0.4493604,-0.060256 0.06247,-0.0075 0.1247712,-0.016345 0.1871567,-0.024517 0.3493146,0.021153 0.1053219,0.00895 0.3985464,0.018419 0.046685,0.00151 0.093317,0.00602 0.1400228,0.00544 0.00681,-8.46e-5 0.1374569,-0.014188 0.1536885,-0.013557 0.023207,9.022e-4 0.045906,0.00709 0.068859,0.010629 0.019799,0.00868 0.041112,0.014494 0.059394,0.026027 0.014205,0.00896 0.05133,0.042757 0.036665,0.034568 C 7.8326373,0.98347375 7.2699107,0.66991846 6.7139756,0.34465339 c -0.00766,-0.004479 0.010509,-0.0142941 0.015838,-0.0213844 0.00337,-0.004479 0.00565,-0.010124 0.010253,-0.0133223 0.00193,-0.001339 0.00459,9.3663e-4 0.00689,0.001408 0.027005,0.006639 0.010033,0.0219787 0.033555,-0.0133165 0.00539,-0.003764 0.00984,-0.009525 0.016177,-0.0112922 0.038513,-0.0107463 0.053231,0.0725531 0.068355,0.0887873 0.012229,0.0292982 0.033714,0.0758176 0.03763,0.10713199 0.00241,0.0192214 -8.202e-4,0.0387687 -0.00266,0.0580525 -0.00733,0.0769259 -0.026677,0.15222428 -0.035525,0.22894099 -0.026853,0.10273141 -0.049133,0.20789312 -0.08353,0.30845673 -0.013618,0.039816 -0.032616,0.077688 -0.045661,0.1176958 -0.1536359,0.4712205 0.093228,-0.22510196 -0.089322,0.2807592 -0.02427,0.050814 -0.046501,0.1026543 -0.072813,0.1524426 -0.02832,0.053589 -0.065221,0.1025754 -0.090956,0.1574525 -0.027337,0.058291 -0.038511,0.1235115 -0.067716,0.1808895 C 6.3829136,2.0293869 6.339006,2.0843263 6.3009353,2.1425975 6.1283796,2.4067116 6.2366265,2.2331118 6.0715265,2.5060952 5.7691239,2.8866494 6.118004,2.4913603 5.7094072,2.8133688 5.6578478,2.854002 5.6246699,2.9138078 5.5787858,2.9607552 5.5321739,3.0084472 5.4775094,3.0479826 5.4322442,3.0969543 5.1942087,3.3544801 5.4555778,3.1481107 5.1443535,3.3640916 5.102298,3.4065551 5.0601178,3.4488954 5.0181869,3.4914819 4.979013,3.5312686 4.9429442,3.57431 4.90104,3.6112103 4.8156404,3.6864118 4.7129271,3.753091 4.6108122,3.8029026 4.5152016,3.8495415 4.4111476,3.877288 4.3162352,3.9256772 4.2744919,3.9509131 4.1698489,4.009871 4.1333036,4.0477411 c -0.1737651,0.1800638 0.062829,-0.030741 -0.070283,0.145419 -0.042598,0.056374 -0.090999,0.024172 -0.1450382,0.011988 0,0 0.9044061,0.6084155 0.9044061,0.6084155 z" />
      <path
         style="fill:#19232d;stroke:#19232d;stroke-width:0.264583;stroke-linecap:round;stroke-dasharray:none"
         id="path951"
         d="m 6.0697255,0.18101138 c 0.012999,0.0149519 0.029278,0.0275917 0.039,0.0448557 0.00791,0.0140426 0.0087,0.031041 0.012552,0.0466906 0.00588,0.0238993 0.011115,0.0479519 0.016629,0.0719383 0.00596,0.0259093 0.00806,0.0530002 0.017775,0.0777486 0.030205,0.0769914 0.1108641,0.2053291 0.1489178,0.26968156 0.094645,0.22919494 0.2681121,0.41303096 0.3718748,0.63761686 0.03147,0.068114 0.043614,0.1436717 0.069478,0.2141049 0.148182,0.4035299 0.050591,0.061101 0.1472989,0.4388857 0.031692,0.1794398 0.030596,0.1983729 0.079904,0.3753104 0.016846,0.060449 0.030224,0.1224816 0.055718,0.1798213 0.030862,0.069411 0.074326,0.1325065 0.1123804,0.1982496 0.1228381,0.2122165 0.084793,0.1486967 0.2246871,0.3491124 0.1078754,0.1163884 0.2043125,0.2286498 0.3279097,0.3293399 0.1633003,0.1330351 0.3709774,0.260904 0.5472078,0.370427 0.1232755,0.076613 0.2479435,0.1509612 0.371915,0.2264417 0,0 0.6018395,0.2492278 0.6018395,0.2492278 v 0 C 9.2325289,4.2563229 9.3755331,4.247081 9.3774709,4.1810916 9.3784234,4.1488822 9.3557777,4.1193407 9.3364493,4.0935571 9.2622676,3.9945942 9.1542827,3.924105 9.0849687,3.8207447 8.9688862,3.689074 8.89534,3.6127785 8.7936773,3.4684067 8.7513625,3.4083154 8.7158519,3.3436975 8.6756625,3.2821641 8.6298864,3.2120768 8.5808986,3.1441046 8.5358024,3.0735778 8.4220874,2.8957381 8.3790268,2.8135318 8.2753731,2.6298648 8.1419665,2.318158 8.2063846,2.5093036 8.1383851,2.2053213 8.1232927,2.1378526 8.0925494,2.0727351 8.0899496,2.003648 8.084369,1.8553564 8.1976991,1.759507 8.2107057,1.617915 c 7.938e-4,-0.00133 0.073867,-0.1200579 0.07823,-0.1343671 0.00837,-0.027449 0.00371,-0.1343837 0.019418,-0.1584309 0.00719,-0.011012 0.022614,-0.013445 0.033921,-0.020167 0,0 -2.2725494,-1.12393847 -2.2725492,-1.12393862 z" />
      <path
         style="fill:#19232d;stroke:#19232d;stroke-width:0.264583;stroke-linecap:round;stroke-dasharray:none"
         id="path955"
         d="m 1.3973163,0.70694351 c -9.813e-4,0.0459005 -0.039376,0.0494894 -0.066737,0.0774585 -0.013065,0.0133559 -0.019456,0.0325059 -0.033202,0.0451602 -0.043134,0.0397076 -0.084548,0.0492109 -0.1386597,0.070351 -0.29994011,0.0761121 0.1058923,-0.0312303 -0.19561779,0.0631023 -0.0372759,0.0116624 -0.0759533,0.0182615 -0.1138052,0.0278918 C 0.80949721,1.0010326 0.77067241,1.0155614 0.73016051,1.02228 0.59842916,1.044127 0.53923491,1.032912 0.40186533,1.02603 -0.01456083,1.042436 0.53156091,1.02328 0.10121246,1.03048 0.01619539,1.0319 -0.06862693,1.03955 -0.15363019,1.041641 c -0.15333348,0.00377 -0.0613357,-0.00874 -0.19536837,0.017643 -0.0415956,0.018003 -0.10698911,0.034541 -0.12451934,0.087118 -0.0104696,0.031401 -0.004841,0.066489 -4.7096e-4,0.0993 0.01783,0.1338531 0.0966801,0.2594658 0.15673345,0.3767692 0.0604222,0.1095748 0.11184753,0.2237784 0.17029168,0.3343599 0.15588407,2.597512 0.27678619,3.929988 0.13197208,5.250624 -0.04485021,0.022625 -0.05294342,0.023051 -0.08902862,0.053486 -0.009441,0.00796 -0.0168769,0.018119 -0.0263113,0.026091 -0.009444,0.00798 -0.0200975,0.014409 -0.0301462,0.021614 -0.0105655,0.00768 -0.0217209,0.01461 -0.0316965,0.023043 -0.0113139,0.00956 -0.0213473,0.020548 -0.0320209,0.03082 -0.23548696,0.8001043 -0.0413089,0.08645 2.03444647,1.2268364 0.014867,0.00817 0.019076,-0.029194 0.033234,-0.038538 0.015367,-0.010142 0.036286,-0.00873 0.05226,-0.017888 0.017883,-0.01025 0.031778,-0.02626 0.047667,-0.039389 0.021972,-0.01234 0.043944,-0.02468 0.065916,-0.037022 0.01924,-0.025913 0.029693,-0.061736 0.057721,-0.077739 0.071791,-0.040989 0.2426719,-0.039265 0.3130775,-0.047176 0.057451,-0.00646 0.1144488,-0.016497 0.1715041,-0.025821 0.062101,-0.010149 0.1230597,-0.030218 0.1859398,-0.0326 0.083995,-0.00318 0.1677707,0.010684 0.251656,0.016026 0.1871557,-0.00506 0.3738835,0.033257 0.5610164,0.027321 0.092455,-0.00293 0.1830944,-0.029916 0.2755477,-0.032884 0.1124143,-0.00361 0.2247127,0.01075 0.337158,0.013213 0.041024,8.996e-4 0.6096672,0.00188 0.6502257,0.00198 0.2034971,0.010499 0.4525042,0.025672 0.6572687,0.027322 0.099035,7.938e-4 0.1981673,-0.01002 0.2970728,-0.00491 0.1095613,0.00566 0.218036,0.024567 0.3270171,0.03717 0.4543007,0.052538 0.1418471,0.019106 0.56878,0.062936 0.3111701,0.034773 0.6154023,0.1097166 0.9240134,0.1597591 0.058126,0.00942 0.1160955,0.020227 0.1746173,0.026761 0.052889,0.0059 0.1062035,0.00701 0.1593054,0.010514 0.096723,-0.01741 0.1577586,-0.016179 0.2392103,-0.074523 0.084599,-0.060597 0.1266042,-0.1707703 0.147714,-0.2677945 0.00811,-0.037268 0.010964,-0.075488 0.016447,-0.1132319 0.010978,-0.096834 -0.013216,-0.1940809 -0.00627,-0.2907808 0.00332,-0.046156 0.018891,-0.090632 0.026337,-0.1363043 0.029002,-0.1779236 0.010316,-0.126347 0.047175,-0.3043873 0.01053,-0.05086 0.024281,-0.1009994 0.036423,-0.1514991 0.01162,-0.051791 0.029853,-0.1025305 0.034866,-0.1553718 0.00615,-0.064794 -0.00655,-0.1303509 -0.00161,-0.1952471 0.00729,-0.09555 0.047128,-0.2723949 0.076997,-0.3640839 0.025879,-0.079437 0.094194,-0.2291236 0.1285677,-0.3069333 0.02019,-0.045386 0.068207,-0.087074 0.060573,-0.1361594 C 8.7086723,5.999867 8.4783676,5.7188451 8.4216435,5.6426266 L 6.8161887,4.7845294 v 0 c -0.056685,0.00466 -0.3600096,0.00809 -0.4213281,0.084386 -0.03414,0.042476 -0.00368,0.1089295 -0.00551,0.1633945 -0.00959,0.1910062 -0.014801,0.3508084 -0.067173,0.5373283 -0.016325,0.058143 -0.033085,0.1166243 -0.057974,0.1716487 -0.023857,0.052744 -0.065312,0.096542 -0.087515,0.1500026 -0.020389,0.049094 -0.026003,0.1030899 -0.039007,0.1546349 -0.011652,0.051639 -0.02213,0.1035582 -0.034957,0.1549181 -0.040824,0.1634423 -0.036896,0.1260861 -0.082673,0.2833065 -0.01216,0.041766 -0.015954,0.08644 -0.034138,0.1259573 -0.02263,0.049178 -0.09869,0.1336112 -0.1352103,0.1765136 -0.04062,0.05098 -0.053394,0.069057 -0.09569,0.1150601 -0.00589,0.0064 -0.060315,0.060368 -0.068028,0.072731 -0.00715,0.011467 -0.024027,0.066732 -0.027633,0.077929 -0.00617,0.017219 -0.00926,0.03588 -0.018518,0.051656 -0.0245,0.041756 -0.068056,0.076796 -0.1066213,0.1034876 -0.1056142,0.073095 -0.2264095,0.1123942 -0.3502493,0.1427969 -0.2422414,0.046258 -0.1283134,0.02136 -0.3724188,0.08091 -0.068824,0.01679 -0.1361376,0.041708 -0.2064239,0.050567 -0.095209,0.012002 -0.1919116,0.00511 -0.2876466,0.011705 -0.1169357,0.00805 -0.4209904,0.04402 -0.5366869,0.057201 -1.1322552,0.030391 0.517229,-0.012388 -0.6267346,0.012282 -0.1013056,0.0022 -0.2026404,0.014526 -0.3038412,0.00943 C 2.7240164,7.5660106 2.5996776,7.5380418 2.4736679,7.5286729 2.2920207,7.5151675 2.1087521,7.5353301 1.9275906,7.5086071 1.8446791,7.5044453 1.761249,7.5062722 1.6788561,7.4961215 1.0956662,7.4242731 1.6237995,7.4530661 1.0986252,7.4025473 0.89403567,7.3828668 0.87437335,7.4087068 0.668348,7.369566 0.5803607,7.3528499 0.49493333,7.3247096 0.40822602,7.3022814 0.24372712,7.2690709 0.28998809,7.283705 0.13845374,7.2337101 0.11076437,7.2245748 0.08170786,7.2182931 0.0559704,7.2045914 0.02626453,7.188777 -0.05539384,7.1291706 -0.02626261,7.1460203 1.979574,8.3062023 2.7041488,8.2272946 1.8887902,8.3033959 1.8687386,8.2974081 1.8474356,8.2946236 1.8286355,8.2854328 1.7705531,8.2570375 1.7343839,8.2001589 1.696673,8.1508829 1.6742871,8.1216316 1.6074043,8.0376606 1.5881436,8.0133893 1.5336911,7.9185237 1.4827508,7.823021 1.4426892,7.7209263 1.4264489,7.6795386 1.4129249,7.6371356 1.3982081,7.595182 1.381199,7.5466939 1.3609533,7.4991978 1.3475118,7.4496022 1.3338576,7.3992218 1.3272503,7.3471917 1.3171195,7.2959864 1.3086105,7.2422678 1.30207,7.1881999 1.2915924,7.1348303 1.2798766,7.0751535 1.2592724,7.0172434 1.2505796,6.9570517 1.242137,6.8985931 1.2463881,6.8389081 1.2403695,6.7801505 1.2339142,6.7171302 1.2208952,6.6549338 1.2131921,6.592054 1.1918894,6.4181621 1.1926796,6.3808839 1.1828728,6.2061581 1.1835157,6.1437001 1.1945607,6.0804784 1.1848042,6.0187837 1.1730822,5.9446718 1.1371131,5.8763209 1.1191841,5.8034615 1.1010793,5.7298872 1.0902235,5.6547106 1.0768613,5.5801294 0.95308951,4.8892938 1.1163572,5.8061386 1.0148466,5.1149794 1.0025707,5.0313954 0.98282431,4.9490807 0.96681313,4.8661311 0.93167045,4.6988235 0.88617085,4.4980637 0.86412498,4.3285354 0.81217774,3.9290714 0.87454316,4.184129 0.79995169,3.7790172 0.78164385,3.6795858 0.74510785,3.5833827 0.73464678,3.4828228 c -0.009413,-0.090481 0.004073,-0.1818933 0.006109,-0.2728402 0.0551321,-0.6514981 -0.040781,0.1084355 0.11677327,-0.4339976 0.0162049,-0.055791 8.4402e-4,-0.1165278 0.008901,-0.1740631 0.006759,-0.048256 0.0261364,-0.093995 0.035344,-0.1418445 0.0866311,-0.4502002 -0.04915,0.1615854 0.038652,-0.224235 0.025931,-0.058023 0.0522201,-0.1282793 0.10499955,-0.1692534 0.00747,-0.0058 0.020063,-0.0033 0.026456,-0.01027 0.011457,-0.012494 -0.012177,-0.040414 0.00869,-0.050107 0.00979,-0.013556 0.052339,-0.072931 0.05971,-0.080646 C 1.1874476,1.876203 1.2090976,1.873122 1.2626454,1.827775 1.4364591,1.6805813 1.2092874,1.85332 1.401268,1.711492 1.420309,1.686388 1.434621,1.656863 1.458389,1.63618 1.523236,1.57975 1.5841074,1.574487 1.6650038,1.553315 c 0.036967,-0.00967 0.073421,-0.021671 0.1109686,-0.028768 0.041719,-0.00789 0.084235,-0.010726 0.1263532,-0.016088 0.033566,-0.00667 0.067133,-0.01335 0.1006994,-0.020024 0.036696,-0.00211 0.073338,-0.00698 0.1100892,-0.00633 0.099045,0.00174 0.1401237,0.013428 0.2356816,0.038891 0.053613,0.014286 0.096344,0.026701 0.1440518,0.055369 0.021668,0.01302 0.040743,0.029935 0.061115,0.044902 L 1.3973173,0.70694341 Z"
         sodipodi:nodetypes="csccsssccccscccccsccccscccscscccssccssccccsscccscccscsccsccsssccsscccccscssccccscssscssccsscssscssssccssscssscscscccccscscccccssccc" />
    </g>
  </g>
</svg>
